<svg xmlns="http://www.w3.org/2000/svg" version="1.1" xmlns:xlink="http://www.w3.org/1999/xlink" xmlns:svgjs="http://svgjs.dev/svgjs" width="1500" height="935" viewBox="0 0 1500 935"><g transform="matrix(1,0,0,1,-0.9090909090909918,0.3785425101214628)"><svg viewBox="0 0 396 247" data-background-color="#cad7e7" preserveAspectRatio="xMidYMid meet" height="935" width="1500" xmlns="http://www.w3.org/2000/svg" xmlns:xlink="http://www.w3.org/1999/xlink"><g id="tight-bounds" transform="matrix(1,0,0,1,0.2400000000000091,-0.09999999999999432)"><svg viewBox="0 0 395.52 247.2" height="247.2" width="395.52"><g><svg></svg></g><g><svg viewBox="0 0 395.52 247.2" height="247.2" width="395.52"><g><path d="M55.039 247.2l45.763-79.264 2.864 0-44.252 76.648h276.692l-44.252-76.648 2.864 0 45.763 79.264zM197.76 0l45.763 79.264h-2.864l-42.899-74.303-42.899 74.303-2.864 0z" fill="#9d8d26" fill-rule="nonzero" stroke="none" stroke-width="1" stroke-linecap="butt" stroke-linejoin="miter" stroke-miterlimit="10" stroke-dasharray="" stroke-dashoffset="0" font-family="none" font-weight="none" font-size="none" text-anchor="none" style="mix-blend-mode: normal" data-fill-palette-color="tertiary"></path></g><g transform="matrix(1,0,0,1,0,91.93112266585774)"><svg viewBox="0 0 395.52 63.33775466828449" height="63.33775466828449" width="395.52"><g><svg viewBox="0 0 395.52 63.33775466828449" height="63.33775466828449" width="395.52"><g><svg viewBox="0 0 395.52 63.33775466828449" height="63.33775466828449" width="395.52"><g id="textblocktransform"><svg viewBox="0 0 395.52 63.33775466828449" height="63.33775466828449" width="395.52" id="textblock"><g><rect width="106.79039999999999" height="3.7887199233024846" y="55.73976562955265" fill="#9d8d26" data-fill-palette-color="tertiary"></rect><rect width="106.79039999999999" height="3.7887199233024846" y="55.73976562955265" x="288.7296" fill="#9d8d26" data-fill-palette-color="tertiary"></rect></g><g><svg viewBox="0 0 395.52 42.01238153165607" height="42.01238153165607" width="395.52"><g transform="matrix(1,0,0,1,0,0)"><svg width="395.52" viewBox="2.22 -38.23 441.5 46.9" height="42.01238153165607" data-palette-color="url(#73024cb7-7a68-4e46-b94d-e0ec8fd19ed0)"></svg></g></svg></g><g transform="matrix(1,0,0,1,106.79039999999999,51.930496514123305)"><svg viewBox="0 0 181.9392 11.40725815416118" height="11.40725815416118" width="181.9392"><g transform="matrix(1,0,0,1,8,0)"><svg width="165.9392" viewBox="4.7 -37 683.63 47" height="11.40725815416118" data-palette-color="url(#ac6cbab2-6ca2-4786-b1a1-36c429ff451c)"></svg></g></svg></g></svg></g></svg></g></svg></g></svg></g></svg></g><defs></defs><mask id="dc14008a-df6a-412f-8235-0b046e9e0701"><g id="SvgjsG1673"><svg viewBox="0 0 395.52 247.2" height="247.2" width="395.52"><g><svg></svg></g><g><svg viewBox="0 0 395.52 247.2" height="247.2" width="395.52"><g><path d="M55.039 247.2l45.763-79.264 2.864 0-44.252 76.648h276.692l-44.252-76.648 2.864 0 45.763 79.264zM197.76 0l45.763 79.264h-2.864l-42.899-74.303-42.899 74.303-2.864 0z" fill="black" fill-rule="nonzero" stroke="none" stroke-width="1" stroke-linecap="butt" stroke-linejoin="miter" stroke-miterlimit="10" stroke-dasharray="" stroke-dashoffset="0" font-family="none" font-weight="none" font-size="none" text-anchor="none" style="mix-blend-mode: normal"></path></g><g transform="matrix(1,0,0,1,0,91.93112266585774)"><svg viewBox="0 0 395.52 63.33775466828449" height="63.33775466828449" width="395.52"><g><svg viewBox="0 0 395.52 63.33775466828449" height="63.33775466828449" width="395.52"><g><svg viewBox="0 0 395.52 63.33775466828449" height="63.33775466828449" width="395.52"><g id="SvgjsG1672"><svg viewBox="0 0 395.52 63.33775466828449" height="63.33775466828449" width="395.52" id="SvgjsSvg1671"><g><rect width="106.79039999999999" height="3.7887199233024846" y="55.73976562955265" fill="black"></rect><rect width="106.79039999999999" height="3.7887199233024846" y="55.73976562955265" x="288.7296" fill="black"></rect></g><g><svg viewBox="0 0 395.52 42.01238153165607" height="42.01238153165607" width="395.52"><g transform="matrix(1,0,0,1,0,0)"><svg width="395.52" viewBox="2.22 -38.23 441.5 46.9" height="42.01238153165607" data-palette-color="url(#73024cb7-7a68-4e46-b94d-e0ec8fd19ed0)"><path d="M4.32-1.76L4.32-1.76Q3.47-2.25 2.84-2.78 2.22-3.32 2.22-3.93L2.22-3.93Q2.22-5.1 3.22-5.1L3.22-5.1Q3.88-5.1 4.69-4.37 5.49-3.64 6.49-3.09 7.5-2.54 8.67-2.15L8.67-2.15Q11.08-1.34 13.13-1.34 15.19-1.34 16.3-1.61 17.41-1.88 18.16-2.34L18.16-2.34Q19.78-3.34 19.78-4.91L19.78-4.91Q19.78-6.35 18.38-7.81L18.38-7.81Q17.21-9.06 15.06-10.79L15.06-10.79 10.89-14.06Q4.61-18.9 3.49-22.9L3.49-22.9Q3.1-24.29 3.1-26 3.1-27.71 3.87-29.37 4.64-31.03 6.15-32.28L6.15-32.28Q9.4-34.99 14.99-34.99L14.99-34.99Q17.85-34.99 20.12-34.14 22.39-33.3 23.22-32.64 24.05-31.98 24.05-31.45L24.05-31.45Q24.05-30.32 23.12-30.32L23.12-30.32Q22.58-30.32 21.97-30.86 21.36-31.4 20.62-31.8 19.87-32.2 18.92-32.52L18.92-32.52Q16.87-33.2 14.89-33.2L14.89-33.2Q11.25-33.2 11.25-30.81L11.25-30.81Q11.25-29.81 11.91-28.96L11.91-28.96Q13.09-27.47 16.49-24.69 19.9-21.92 21.96-19.85 24.02-17.77 25.1-16.11L25.1-16.11Q26.81-13.5 26.81-10.68 26.81-7.86 25.82-5.9 24.83-3.93 23.05-2.51L23.05-2.51Q19.29 0.46 13.72 0.46 8.15 0.46 4.32-1.76ZM53.22-26.51L53.22-26.51Q61.81-26.51 61.81-18.16L61.81-18.16 61.81 0 51.32 0 51.32-23.75Q50.88-24.05 50.16-24.05 49.44-24.05 48.65-23.71 47.87-23.36 47.02-22.75L47.02-22.75Q45.19-21.41 43.77-19.38L43.77-19.38 43.77 0 33.27 0 33.27-34.55 43.77-34.55 43.77-21.95Q47.95-26.51 53.22-26.51ZM67.55-13.18L67.55-13.18Q67.55-16.11 68.61-18.52 69.67-20.92 71.53-22.71L71.53-22.71Q75.53-26.51 81.59-26.51L81.59-26.51Q87.76-26.51 91.65-22.56L91.65-22.56Q95.36-18.82 95.36-13.11L95.36-13.11Q95.36-7.37 91.55-3.52L91.55-3.52Q87.62 0.46 81.49 0.46L81.49 0.46Q75.51 0.46 71.58-3.32L71.58-3.32Q67.55-7.23 67.55-13.18ZM80.81-24.71L80.81-1.37Q81-1.34 81.2-1.34L81.2-1.34 81.54-1.34Q86.47-1.34 89.81-4.39L89.81-4.39Q93.38-7.69 93.38-13.04L93.38-13.04Q93.38-18.26 90.03-21.51L90.03-21.51Q86.74-24.73 81.51-24.73L81.51-24.73 81.15-24.73Q80.98-24.73 80.81-24.71L80.81-24.71ZM118.21 0.46L118.21 0.46Q114.81 0.46 111.64-1.07L111.64-1.07 111.64 7.81 101.6 7.81 101.6-26.07 111.64-26.07 111.64-24.73Q114.84-26.51 118.18-26.51 121.53-26.51 124.09-25.51 126.65-24.51 128.48-22.75L128.48-22.75Q132.27-19.04 132.27-13.26L132.27-13.26Q132.27-7.42 128.53-3.56L128.53-3.56Q124.68 0.46 118.21 0.46ZM118.13-24.73L118.13-24.73Q114.52-24.73 111.64-22.73L111.64-22.73 111.64-3.25Q114.93-1.34 118.82-1.34L118.82-1.34 119.45-1.34Q119.74-1.34 120.01-1.39L120.01-1.39 120.01-24.58Q119.08-24.73 118.13-24.73ZM155.12 0.46L155.12 0.46Q151.72 0.46 148.55-1.07L148.55-1.07 148.55 7.81 138.52 7.81 138.52-26.07 148.55-26.07 148.55-24.73Q151.75-26.51 155.09-26.51 158.44-26.51 161-25.51 163.56-24.51 165.4-22.75L165.4-22.75Q169.18-19.04 169.18-13.26L169.18-13.26Q169.18-7.42 165.44-3.56L165.44-3.56Q161.59 0.46 155.12 0.46ZM155.04-24.73L155.04-24.73Q151.43-24.73 148.55-22.73L148.55-22.73 148.55-3.25Q151.85-1.34 155.73-1.34L155.73-1.34 156.36-1.34Q156.66-1.34 156.92-1.39L156.92-1.39 156.92-24.58Q156-24.73 155.04-24.73ZM180.55-30.35Q178.04-30.35 176.62-31.47 175.21-32.59 175.21-34.42L175.21-34.42Q175.21-35.96 176.77-37.06L176.77-37.06Q178.43-38.23 180.29-38.23 182.14-38.23 183.15-37.87 184.17-37.5 184.88-36.91L184.88-36.91Q186.29-35.72 186.29-34.13L186.29-34.13Q186.29-32.54 184.68-31.45L184.68-31.45Q183.07-30.35 180.55-30.35ZM175.43 0L175.43-26.07 185.93-26.07 185.93 0 175.43 0ZM211.97 0L211.97-23.41Q211.36-23.8 210.65-23.8 209.95-23.8 209.19-23.47 208.43-23.14 207.6-22.56L207.6-22.56Q205.87-21.31 204.4-19.24L204.4-19.24 204.4 0 193.91 0 193.91-26.07 204.4-26.07 204.4-21.9Q208.58-26.51 213.85-26.51L213.85-26.51Q222.47-26.51 222.47-18.16L222.47-18.16 222.47 0 211.97 0ZM235.77-7.96L235.77-7.96Q233.6-7.3 233.6-6.52L233.6-6.52Q233.6-5.76 234.87-5.47L234.87-5.47Q237.34-4.88 241.66-4.77 245.98-4.66 248.16-4.11 250.35-3.56 251.64-2.73L251.64-2.73Q253.99-1.2 253.99 1.34L253.99 1.34Q253.99 4.52 250.84 6.49L250.84 6.49Q247.35 8.67 241 8.67L241 8.67Q234.43 8.67 230.16 6.71L230.16 6.71Q228.62 5.96 228.62 5L228.62 5Q228.62 4.59 228.93 4.35 229.23 4.1 229.57 4.1L229.57 4.1Q229.99 4.1 230.52 4.42L230.52 4.42Q231.77 5.13 232.83 5.6 233.89 6.08 236.16 6.52 238.43 6.96 240.55 6.96 242.66 6.96 243.99 6.77 245.32 6.59 246.2 6.35L246.2 6.35Q247.93 5.83 247.93 5.2L247.93 5.2Q247.93 4.61 247.59 4.35 247.25 4.08 246.7 3.87 246.15 3.66 245.17 3.49L245.17 3.49Q243.17 3.15 239.73 2.98 236.29 2.81 234.28 2.31 232.28 1.81 231.01 1.03L231.01 1.03Q228.55-0.46 228.55-3L228.55-3Q228.55-6.67 233.5-8.94L233.5-8.94Q231.23-10.18 229.89-12.22 228.55-14.26 228.55-16.64 228.55-19.02 229.44-20.76 230.33-22.51 231.94-23.78L231.94-23.78Q235.33-26.51 240.71-26.51L240.71-26.51Q243.1-26.51 245.51-25.78L245.51-25.78Q248.98-29.13 251.94-29.13L251.94-29.13Q253.18-29.13 253.78-28.71 254.38-28.3 254.38-27.66L254.38-27.66Q254.38-27.03 253.96-26.75 253.55-26.46 253.18-26.46L253.18-26.46Q252.52-26.46 252.06-26.61L252.06-26.61Q251.37-26.86 250.67-26.86L250.67-26.86Q249.35-26.86 247.35-25.02L247.35-25.02Q251.33-23.07 252.55-19.41L252.55-19.41Q252.94-18.19 252.94-16.42 252.94-14.65 251.91-12.89 250.89-11.13 249.18-9.86L249.18-9.86Q245.61-7.23 240.8-7.23L240.8-7.23Q238.26-7.18 235.77-7.96ZM240.9-24.78L240.9-9.01Q244.86-9.06 247.71-10.94L247.71-10.94Q251.01-13.09 251.01-16.75 251.01-20.41 247.76-22.66L247.76-22.66Q244.78-24.71 240.9-24.78L240.9-24.78ZM258.11-2.66L258.11-2.66Q257.74-3.64 257.74-4.71 257.74-5.79 258.17-6.68 258.6-7.57 259.38-8.25L259.38-8.25Q261.04-9.74 263.53-9.74L263.53-9.74Q266.09-9.74 267.68-8.06L267.68-8.06Q269.15-6.52 269.15-4.44L269.15-4.44Q269.15-2.37 267.48-0.98L267.48-0.98Q265.78 0.46 263.38 0.46L263.38 0.46Q259.33 0.46 258.11-2.66ZM274.07-13.18L274.07-13.18Q274.07-16.11 275.14-18.52 276.2-20.92 278.05-22.71L278.05-22.71Q282.06-26.51 288.11-26.51L288.11-26.51Q294.29-26.51 298.17-22.56L298.17-22.56Q301.88-18.82 301.88-13.11L301.88-13.11Q301.88-7.37 298.07-3.52L298.07-3.52Q294.14 0.46 288.01 0.46L288.01 0.46Q282.03 0.46 278.1-3.32L278.1-3.32Q274.07-7.23 274.07-13.18ZM287.33-24.71L287.33-1.37Q287.53-1.34 287.72-1.34L287.72-1.34 288.06-1.34Q293-1.34 296.34-4.39L296.34-4.39Q299.9-7.69 299.9-13.04L299.9-13.04Q299.9-18.26 296.56-21.51L296.56-21.51Q293.26-24.73 288.04-24.73L288.04-24.73 287.67-24.73Q287.5-24.73 287.33-24.71L287.33-24.71ZM326.2 0L326.2-23.41Q325.59-23.8 324.88-23.8 324.17-23.8 323.41-23.47 322.66-23.14 321.83-22.56L321.83-22.56Q320.09-21.31 318.63-19.24L318.63-19.24 318.63 0 308.13 0 308.13-26.07 318.63-26.07 318.63-21.9Q322.8-26.51 328.08-26.51L328.08-26.51Q336.69-26.51 336.69-18.16L336.69-18.16 336.69 0 326.2 0ZM344.67 0L344.67-34.55 355.17-34.55 355.17 0 344.67 0ZM368.28-30.35Q365.77-30.35 364.35-31.47 362.93-32.59 362.93-34.42L362.93-34.42Q362.93-35.96 364.5-37.06L364.5-37.06Q366.16-38.23 368.01-38.23 369.87-38.23 370.88-37.87 371.89-37.5 372.6-36.91L372.6-36.91Q374.02-35.72 374.02-34.13L374.02-34.13Q374.02-32.54 372.41-31.45L372.41-31.45Q370.8-30.35 368.28-30.35ZM363.15 0L363.15-26.07 373.65-26.07 373.65 0 363.15 0ZM399.7 0L399.7-23.41Q399.09-23.8 398.38-23.8 397.67-23.8 396.92-23.47 396.16-23.14 395.33-22.56L395.33-22.56Q393.6-21.31 392.13-19.24L392.13-19.24 392.13 0 381.63 0 381.63-26.07 392.13-26.07 392.13-21.9Q396.31-26.51 401.58-26.51L401.58-26.51Q410.2-26.51 410.2-18.16L410.2-18.16 410.2 0 399.7 0ZM440.83-5.93L440.83-5.93Q441.79-5.93 441.79-5.05L441.79-5.05Q441.79-4.39 440.93-3.49L440.93-3.49Q437.07 0.46 430.36 0.46L430.36 0.46Q424.33 0.46 420.2-3.17L420.2-3.17Q415.93-6.96 415.93-12.74L415.93-12.74Q415.93-18.65 419.79-22.46L419.79-22.46Q423.87-26.51 430.63-26.51L430.63-26.51Q436.05-26.51 439.74-23.22L439.74-23.22Q443.72-19.68 443.72-13.92L443.72-13.92Q443.72-13.09 443.67-12.16L443.67-12.16 427.55-12.16 427.55-1.68Q429.21-1.34 431.29-1.34L431.29-1.34Q435.68-1.34 438.78-4.25L438.78-4.25Q439.42-4.88 439.69-5.25L439.69-5.25Q440.25-5.93 440.83-5.93ZM434.32-13.94L434.32-24.27Q432.73-24.73 430.73-24.73 428.72-24.73 427.55-24.46L427.55-24.46 427.55-13.94 434.32-13.94Z" opacity="1" transform="matrix(1,0,0,1,0,0)" fill="white" class="wordmark-text-0" id="SvgjsPath1670"></path></svg></g></svg></g><g transform="matrix(1,0,0,1,106.79039999999999,51.930496514123305)"><svg viewBox="0 0 181.9392 11.40725815416118" height="11.40725815416118" width="181.9392"><g transform="matrix(1,0,0,1,8,0)"><svg width="165.9392" viewBox="4.7 -37 683.63 47" height="11.40725815416118" data-palette-color="url(#ac6cbab2-6ca2-4786-b1a1-36c429ff451c)"><path d="M6.2-35L6.2-35 24.55-35Q25.15-35 25.6-34.58 26.05-34.15 26.05-33.5L26.05-33.5Q26.05-32.85 25.6-32.45 25.15-32.05 24.55-32.05L24.55-32.05 7.35-32.05 7.85-32.9 7.85-18.85 7.3-19.5 22.3-19.5Q22.9-19.5 23.35-19.05 23.8-18.6 23.8-18L23.8-18Q23.8-17.35 23.35-16.95 22.9-16.55 22.3-16.55L22.3-16.55 7.4-16.55 7.85-17.05 7.85-2.65 7.6-2.95 24.55-2.95Q25.15-2.95 25.6-2.5 26.05-2.05 26.05-1.45L26.05-1.45Q26.05-0.8 25.6-0.4 25.15 0 24.55 0L24.55 0 6.2 0Q5.6 0 5.15-0.45 4.7-0.9 4.7-1.5L4.7-1.5 4.7-33.5Q4.7-34.1 5.15-34.55 5.6-35 6.2-35ZM31-26.1L31-26.1Q31.4-26.1 31.8-25.85 32.2-25.6 32.4-25.1L32.4-25.1 41.15-4.3 40.5-3.9 49.45-25.1Q49.85-26.1 50.9-26.05L50.9-26.05Q51.4-26.05 51.85-25.73 52.3-25.4 52.3-24.8L52.3-24.8Q52.3-24.5 52.22-24.33 52.15-24.15 52.1-23.95L52.1-23.95 42.3-0.95Q41.9-0.05 40.95 0L40.95 0Q40.5 0.05 40.07-0.23 39.65-0.5 39.45-0.95L39.45-0.95 29.6-23.95Q29.55-24.05 29.5-24.25 29.45-24.45 29.45-24.65L29.45-24.65Q29.45-25.2 29.85-25.65 30.25-26.1 31-26.1ZM69.34 0.5L69.34 0.5Q65.5 0.5 62.55-1.15 59.6-2.8 57.95-5.75 56.3-8.7 56.3-12.65L56.3-12.65Q56.3-16.9 57.97-19.9 59.65-22.9 62.32-24.53 65-26.15 68-26.15L68-26.15Q70.2-26.15 72.27-25.38 74.34-24.6 75.97-23.08 77.59-21.55 78.57-19.35 79.55-17.15 79.65-14.25L79.65-14.25Q79.59-13.65 79.15-13.23 78.7-12.8 78.09-12.8L78.09-12.8 58.05-12.8 57.45-15.5 77.15-15.5 76.5-14.9 76.5-15.9Q76.3-18.25 75-19.9 73.7-21.55 71.84-22.4 70-23.25 68-23.25L68-23.25Q66.5-23.25 64.92-22.65 63.35-22.05 62.07-20.78 60.8-19.5 60-17.53 59.2-15.55 59.2-12.85L59.2-12.85Q59.2-9.9 60.4-7.5 61.6-5.1 63.87-3.7 66.15-2.3 69.3-2.3L69.3-2.3Q71.05-2.3 72.45-2.8 73.84-3.3 74.9-4.13 75.95-4.95 76.65-5.85L76.65-5.85Q77.2-6.3 77.75-6.3L77.75-6.3Q78.25-6.3 78.62-5.9 79-5.5 79-5L79-5Q79-4.4 78.5-3.95L78.5-3.95Q77-2.15 74.59-0.83 72.2 0.5 69.34 0.5ZM87.54 0L87.54 0Q86.84 0 86.44-0.45 86.04-0.9 86.04-1.5L86.04-1.5 86.04-23.9Q86.04-24.5 86.47-24.95 86.89-25.4 87.54-25.4L87.54-25.4Q88.19-25.4 88.62-24.95 89.04-24.5 89.04-23.9L89.04-23.9 89.04-16.4 88.29-16.25Q88.44-18 89.17-19.73 89.89-21.45 91.14-22.9 92.39-24.35 94.12-25.25 95.84-26.15 97.99-26.15L97.99-26.15Q98.89-26.15 99.74-25.78 100.59-25.4 100.59-24.55L100.59-24.55Q100.59-23.8 100.19-23.4 99.79-23 99.24-23L99.24-23Q98.79-23 98.27-23.25 97.74-23.5 96.89-23.5L96.89-23.5Q95.49-23.5 94.09-22.68 92.69-21.85 91.54-20.45 90.39-19.05 89.72-17.32 89.04-15.6 89.04-13.85L89.04-13.85 89.04-1.5Q89.04-0.9 88.59-0.45 88.14 0 87.54 0ZM124.34-26L124.34-26Q124.99-26 125.42-25.55 125.84-25.1 125.84-24.5L125.84-24.5 125.84-2.45Q125.84 1.6 124.24 4.38 122.64 7.15 119.94 8.58 117.24 10 113.79 10L113.79 10Q111.64 10 109.81 9.53 107.99 9.05 106.84 8.3L106.84 8.3Q106.24 7.95 105.94 7.45 105.64 6.95 105.89 6.4L105.89 6.4Q106.14 5.7 106.67 5.48 107.19 5.25 107.74 5.5L107.74 5.5Q108.59 5.95 110.19 6.6 111.79 7.25 113.84 7.25L113.84 7.25Q116.59 7.25 118.62 6.1 120.64 4.95 121.74 2.78 122.84 0.6 122.84-2.4L122.84-2.4 122.84-6 123.19-4.8Q122.44-3.25 121.06-2.05 119.69-0.85 117.92-0.18 116.14 0.5 114.14 0.5L114.14 0.5Q111.14 0.5 109.17-0.73 107.19-1.95 106.24-4.1 105.29-6.25 105.29-9.15L105.29-9.15 105.29-24.5Q105.29-25.1 105.69-25.55 106.09-26 106.79-26L106.79-26Q107.44-26 107.87-25.55 108.29-25.1 108.29-24.5L108.29-24.5 108.29-9.6Q108.29-6.1 109.81-4.2 111.34-2.3 114.79-2.3L114.79-2.3Q116.94-2.3 118.74-3.33 120.54-4.35 121.69-6.03 122.84-7.7 122.84-9.6L122.84-9.6 122.84-24.5Q122.84-25.1 123.27-25.55 123.69-26 124.34-26ZM132.04-25.45L132.04-25.45 143.69-25.45Q144.29-25.45 144.69-25.03 145.09-24.6 145.09-24L145.09-24Q145.09-23.45 144.69-23.05 144.29-22.65 143.69-22.65L143.69-22.65 132.04-22.65Q131.44-22.65 131.01-23.08 130.59-23.5 130.59-24.05L130.59-24.05Q130.59-24.65 131.01-25.05 131.44-25.45 132.04-25.45ZM137.19-32.5L137.19-32.5Q137.84-32.5 138.26-32.05 138.69-31.6 138.69-31L138.69-31 138.69-5.9Q138.69-4.5 139.06-3.8 139.44-3.1 140.04-2.88 140.64-2.65 141.24-2.65L141.24-2.65Q141.64-2.65 141.96-2.78 142.29-2.9 142.69-2.9L142.69-2.9Q143.14-2.9 143.46-2.55 143.79-2.2 143.79-1.65L143.79-1.65Q143.79-0.95 142.99-0.48 142.19 0 141.09 0L141.09 0Q140.64 0 139.74-0.08 138.84-0.15 137.89-0.63 136.94-1.1 136.31-2.3 135.69-3.5 135.69-5.75L135.69-5.75 135.69-31Q135.69-31.6 136.11-32.05 136.54-32.5 137.19-32.5ZM162.28-25.75L162.28-25.75Q165.44-25.75 167.38-24.4 169.34-23.05 170.26-20.75 171.19-18.45 171.19-15.65L171.19-15.65 171.19-1.5Q171.19-0.9 170.74-0.45 170.28 0 169.69 0L169.69 0Q168.99 0 168.59-0.45 168.19-0.9 168.19-1.5L168.19-1.5 168.19-15.65Q168.19-17.7 167.56-19.35 166.94-21 165.53-21.98 164.13-22.95 161.78-22.95L161.78-22.95Q159.69-22.95 157.81-21.98 155.94-21 154.78-19.35 153.63-17.7 153.63-15.65L153.63-15.65 153.63-1.5Q153.63-0.9 153.19-0.45 152.74 0 152.13 0L152.13 0Q151.44 0 151.03-0.45 150.63-0.9 150.63-1.5L150.63-1.5 150.63-35.5Q150.63-36.1 151.06-36.55 151.49-37 152.13-37L152.13-37Q152.78-37 153.21-36.55 153.63-36.1 153.63-35.5L153.63-35.5 153.63-19.3 152.49-17.55Q152.59-19.1 153.46-20.58 154.34-22.05 155.74-23.23 157.13-24.4 158.84-25.08 160.53-25.75 162.28-25.75ZM181.93-24.5L181.93-1.5Q181.93-0.9 181.48-0.45 181.03 0 180.43 0L180.43 0Q179.78 0 179.36-0.45 178.93-0.9 178.93-1.5L178.93-1.5 178.93-24.5Q178.93-25.1 179.36-25.55 179.78-26 180.43-26L180.43-26Q181.08-26 181.51-25.55 181.93-25.1 181.93-24.5L181.93-24.5ZM180.43-29.35L180.43-29.35Q179.38-29.35 178.86-29.83 178.33-30.3 178.33-31.2L178.33-31.2 178.33-31.7Q178.33-32.6 178.91-33.08 179.48-33.55 180.48-33.55L180.48-33.55Q181.43-33.55 181.96-33.08 182.48-32.6 182.48-31.7L182.48-31.7 182.48-31.2Q182.48-30.3 181.96-29.83 181.43-29.35 180.43-29.35ZM201.78-26.15L201.78-26.15Q205.08-26.15 207.06-24.83 209.03-23.5 209.91-21.23 210.78-18.95 210.78-16.2L210.78-16.2 210.78-1.5Q210.78-0.9 210.33-0.45 209.88 0 209.28 0L209.28 0Q208.58 0 208.18-0.45 207.78-0.9 207.78-1.5L207.78-1.5 207.78-16.05Q207.78-18.05 207.13-19.7 206.48-21.35 205-22.35 203.53-23.35 201.13-23.35L201.13-23.35Q198.98-23.35 197.06-22.35 195.13-21.35 193.93-19.7 192.73-18.05 192.73-16.05L192.73-16.05 192.73-1.5Q192.73-0.9 192.28-0.45 191.83 0 191.23 0L191.23 0Q190.53 0 190.13-0.45 189.73-0.9 189.73-1.5L189.73-1.5 189.73-23.9Q189.73-24.5 190.16-24.95 190.58-25.4 191.23-25.4L191.23-25.4Q191.88-25.4 192.31-24.95 192.73-24.5 192.73-23.9L192.73-23.9 192.73-19.7 191.58-17.9Q191.68-19.5 192.6-20.98 193.53-22.45 194.98-23.63 196.43-24.8 198.21-25.48 199.98-26.15 201.78-26.15ZM229.28-26.15L229.28-26.15Q231.53-26.15 233.43-25.38 235.33-24.6 236.75-23.38 238.18-22.15 238.98-20.78 239.78-19.4 239.78-18.15L239.78-18.15 238.93-19.35 238.93-24Q238.93-24.65 239.35-25.1 239.78-25.55 240.43-25.55L240.43-25.55Q241.13-25.55 241.53-25.1 241.93-24.65 241.93-24L241.93-24 241.93-2.35Q241.93 1.65 240.28 4.4 238.63 7.15 235.8 8.58 232.98 10 229.38 10L229.38 10Q227.63 10 225.7 9.55 223.78 9.1 222.4 8.4 221.03 7.7 220.88 6.95L220.88 6.95Q220.48 6.5 220.5 6.08 220.53 5.65 220.93 5.35L220.93 5.35Q221.43 5 221.98 5.28 222.53 5.55 223.63 6L223.63 6Q224.13 6.15 224.98 6.45 225.83 6.75 227 6.98 228.18 7.2 229.48 7.2L229.48 7.2Q233.98 7.2 236.45 4.63 238.93 2.05 238.93-2.15L238.93-2.15 238.93-6.95 239.48-6.8Q239.03-5 238-3.65 236.98-2.3 235.58-1.38 234.18-0.45 232.55 0.03 230.93 0.5 229.33 0.5L229.33 0.5Q225.88 0.5 223.13-1.25 220.38-3 218.75-6 217.13-9 217.13-12.85L217.13-12.85Q217.13-16.65 218.75-19.68 220.38-22.7 223.1-24.43 225.83-26.15 229.28-26.15ZM229.63-23.35L229.63-23.35Q226.88-23.35 224.7-21.98 222.53-20.6 221.3-18.23 220.08-15.85 220.08-12.85L220.08-12.85Q220.08-9.85 221.3-7.45 222.53-5.05 224.7-3.68 226.88-2.3 229.63-2.3L229.63-2.3Q232.38-2.3 234.53-3.65 236.68-5 237.93-7.38 239.18-9.75 239.18-12.85L239.18-12.85Q239.18-15.95 237.93-18.32 236.68-20.7 234.53-22.03 232.38-23.35 229.63-23.35ZM295.42-17.5L295.42-17.5Q295.42-13.55 294.2-10.28 292.97-7 290.72-4.58 288.47-2.15 285.4-0.83 282.32 0.5 278.67 0.5L278.67 0.5Q275.02 0.5 271.95-0.83 268.87-2.15 266.62-4.58 264.37-7 263.15-10.28 261.92-13.55 261.92-17.5L261.92-17.5Q261.92-21.45 263.15-24.73 264.37-28 266.62-30.43 268.87-32.85 271.95-34.18 275.02-35.5 278.67-35.5L278.67-35.5Q282.32-35.5 285.4-34.18 288.47-32.85 290.72-30.43 292.97-28 294.2-24.73 295.42-21.45 295.42-17.5ZM292.22-17.5L292.22-17.5Q292.22-21.95 290.5-25.33 288.77-28.7 285.72-30.6 282.67-32.5 278.67-32.5L278.67-32.5Q274.72-32.5 271.65-30.6 268.57-28.7 266.85-25.33 265.12-21.95 265.12-17.5L265.12-17.5Q265.12-13.05 266.85-9.68 268.57-6.3 271.65-4.4 274.72-2.5 278.67-2.5L278.67-2.5Q282.67-2.5 285.72-4.4 288.77-6.3 290.5-9.68 292.22-13.05 292.22-17.5ZM313.82-26.15L313.82-26.15Q317.12-26.15 319.09-24.83 321.07-23.5 321.94-21.23 322.82-18.95 322.82-16.2L322.82-16.2 322.82-1.5Q322.82-0.9 322.37-0.45 321.92 0 321.32 0L321.32 0Q320.62 0 320.22-0.45 319.82-0.9 319.82-1.5L319.82-1.5 319.82-16.05Q319.82-18.05 319.17-19.7 318.52-21.35 317.05-22.35 315.57-23.35 313.17-23.35L313.17-23.35Q311.02-23.35 309.09-22.35 307.17-21.35 305.97-19.7 304.77-18.05 304.77-16.05L304.77-16.05 304.77-1.5Q304.77-0.9 304.32-0.45 303.87 0 303.27 0L303.27 0Q302.57 0 302.17-0.45 301.77-0.9 301.77-1.5L301.77-1.5 301.77-23.9Q301.77-24.5 302.19-24.95 302.62-25.4 303.27-25.4L303.27-25.4Q303.92-25.4 304.34-24.95 304.77-24.5 304.77-23.9L304.77-23.9 304.77-19.7 303.62-17.9Q303.72-19.5 304.64-20.98 305.57-22.45 307.02-23.63 308.47-24.8 310.25-25.48 312.02-26.15 313.82-26.15ZM365.91-35.2L365.91-35.2Q366.56-35.2 366.99-34.73 367.41-34.25 367.41-33.7L367.41-33.7Q367.41-33.45 367.34-33.23 367.26-33 367.11-32.75L367.11-32.75 355.36-16.6 355.96-18.55 355.96-1.5Q355.96-0.9 355.51-0.45 355.06 0 354.41 0L354.41 0Q353.76 0 353.34-0.45 352.91-0.9 352.91-1.5L352.91-1.5 352.91-18.2 353.16-17 341.71-32.65Q341.51-32.9 341.41-33.18 341.31-33.45 341.31-33.7L341.31-33.7Q341.31-34.35 341.84-34.77 342.36-35.2 342.91-35.2L342.91-35.2Q343.66-35.2 344.16-34.5L344.16-34.5 354.91-19.85 354.16-19.95 364.61-34.5Q365.11-35.2 365.91-35.2ZM394.01-12.8L394.01-12.8Q394.01-9 392.36-5.98 390.71-2.95 387.86-1.23 385.01 0.5 381.36 0.5L381.36 0.5Q377.81 0.5 374.94-1.23 372.06-2.95 370.39-5.98 368.71-9 368.71-12.8L368.71-12.8Q368.71-16.65 370.39-19.65 372.06-22.65 374.94-24.4 377.81-26.15 381.36-26.15L381.36-26.15Q385.01-26.15 387.86-24.4 390.71-22.65 392.36-19.65 394.01-16.65 394.01-12.8ZM391.01-12.8L391.01-12.8Q391.01-15.85 389.76-18.23 388.51-20.6 386.34-21.98 384.16-23.35 381.36-23.35L381.36-23.35Q378.66-23.35 376.46-21.98 374.26-20.6 372.99-18.23 371.71-15.85 371.71-12.8L371.71-12.8Q371.71-9.75 372.99-7.4 374.26-5.05 376.46-3.68 378.66-2.3 381.36-2.3L381.36-2.3Q384.16-2.3 386.34-3.68 388.51-5.05 389.76-7.4 391.01-9.75 391.01-12.8ZM419.51-25.4L419.51-25.4Q420.16-25.4 420.58-24.95 421.01-24.5 421.01-23.9L421.01-23.9 421.01-9.8Q421.01-4.85 418.21-2.25 415.41 0.35 410.66 0.35L410.66 0.35Q405.96 0.35 403.18-2.25 400.41-4.85 400.41-9.8L400.41-9.8 400.41-23.9Q400.41-24.5 400.83-24.95 401.26-25.4 401.91-25.4L401.91-25.4Q402.56-25.4 402.98-24.95 403.41-24.5 403.41-23.9L403.41-23.9 403.41-9.8Q403.41-6.2 405.33-4.33 407.26-2.45 410.66-2.45L410.66-2.45Q414.11-2.45 416.06-4.33 418.01-6.2 418.01-9.8L418.01-9.8 418.01-23.9Q418.01-24.5 418.41-24.95 418.81-25.4 419.51-25.4ZM430.36 0L430.36 0Q429.66 0 429.26-0.45 428.86-0.9 428.86-1.5L428.86-1.5 428.86-23.9Q428.86-24.5 429.28-24.95 429.71-25.4 430.36-25.4L430.36-25.4Q431.01-25.4 431.43-24.95 431.86-24.5 431.86-23.9L431.86-23.9 431.86-16.4 431.11-16.25Q431.26-18 431.98-19.73 432.71-21.45 433.96-22.9 435.21-24.35 436.93-25.25 438.66-26.15 440.81-26.15L440.81-26.15Q441.71-26.15 442.56-25.78 443.41-25.4 443.41-24.55L443.41-24.55Q443.41-23.8 443.01-23.4 442.61-23 442.06-23L442.06-23Q441.61-23 441.08-23.25 440.56-23.5 439.71-23.5L439.71-23.5Q438.31-23.5 436.91-22.68 435.51-21.85 434.36-20.45 433.21-19.05 432.53-17.32 431.86-15.6 431.86-13.85L431.86-13.85 431.86-1.5Q431.86-0.9 431.41-0.45 430.96 0 430.36 0ZM464-35L476.75-35Q480.45-35 483.23-33.6 486-32.2 487.8-29.73 489.6-27.25 490.48-24.1 491.35-20.95 491.35-17.5L491.35-17.5Q491.35-12.7 489.78-8.72 488.2-4.75 484.98-2.38 481.75 0 476.75 0L476.75 0 464 0Q463.4 0 462.95-0.45 462.5-0.9 462.5-1.5L462.5-1.5 462.5-33.5Q462.5-34.1 462.95-34.55 463.4-35 464-35L464-35ZM465.35-2.95L476.25-2.95Q480.5-2.95 483.1-4.9 485.7-6.85 486.93-10.18 488.15-13.5 488.15-17.5L488.15-17.5Q488.15-20.4 487.48-23.03 486.8-25.65 485.38-27.68 483.95-29.7 481.68-30.88 479.4-32.05 476.25-32.05L476.25-32.05 465.3-32.05 465.65-32.5 465.65-2.45 465.35-2.95ZM521.9-12.8L521.9-12.8Q521.9-9 520.25-5.98 518.6-2.95 515.75-1.23 512.9 0.5 509.25 0.5L509.25 0.5Q505.7 0.5 502.82-1.23 499.95-2.95 498.27-5.98 496.6-9 496.6-12.8L496.6-12.8Q496.6-16.65 498.27-19.65 499.95-22.65 502.82-24.4 505.7-26.15 509.25-26.15L509.25-26.15Q512.9-26.15 515.75-24.4 518.6-22.65 520.25-19.65 521.9-16.65 521.9-12.8ZM518.9-12.8L518.9-12.8Q518.9-15.85 517.65-18.23 516.4-20.6 514.22-21.98 512.05-23.35 509.25-23.35L509.25-23.35Q506.55-23.35 504.35-21.98 502.15-20.6 500.87-18.23 499.6-15.85 499.6-12.8L499.6-12.8Q499.6-9.75 500.87-7.4 502.15-5.05 504.35-3.68 506.55-2.3 509.25-2.3L509.25-2.3Q512.05-2.3 514.22-3.68 516.4-5.05 517.65-7.4 518.9-9.75 518.9-12.8ZM552.1-12.8L552.1-12.8Q552.1-9 550.45-5.98 548.8-2.95 545.95-1.23 543.1 0.5 539.45 0.5L539.45 0.5Q535.9 0.5 533.02-1.23 530.15-2.95 528.47-5.98 526.8-9 526.8-12.8L526.8-12.8Q526.8-16.65 528.47-19.65 530.15-22.65 533.02-24.4 535.9-26.15 539.45-26.15L539.45-26.15Q543.1-26.15 545.95-24.4 548.8-22.65 550.45-19.65 552.1-16.65 552.1-12.8ZM549.1-12.8L549.1-12.8Q549.1-15.85 547.85-18.23 546.6-20.6 544.42-21.98 542.25-23.35 539.45-23.35L539.45-23.35Q536.75-23.35 534.55-21.98 532.35-20.6 531.07-18.23 529.8-15.85 529.8-12.8L529.8-12.8Q529.8-9.75 531.07-7.4 532.35-5.05 534.55-3.68 536.75-2.3 539.45-2.3L539.45-2.3Q542.25-2.3 544.42-3.68 546.6-5.05 547.85-7.4 549.1-9.75 549.1-12.8ZM559.99 0L559.99 0Q559.29 0 558.89-0.45 558.49-0.9 558.49-1.5L558.49-1.5 558.49-23.9Q558.49-24.5 558.92-24.95 559.34-25.4 559.99-25.4L559.99-25.4Q560.64-25.4 561.07-24.95 561.49-24.5 561.49-23.9L561.49-23.9 561.49-16.4 560.74-16.25Q560.89-18 561.62-19.73 562.34-21.45 563.59-22.9 564.84-24.35 566.57-25.25 568.29-26.15 570.44-26.15L570.44-26.15Q571.34-26.15 572.19-25.78 573.04-25.4 573.04-24.55L573.04-24.55Q573.04-23.8 572.64-23.4 572.24-23 571.69-23L571.69-23Q571.24-23 570.72-23.25 570.19-23.5 569.34-23.5L569.34-23.5Q567.94-23.5 566.54-22.68 565.14-21.85 563.99-20.45 562.84-19.05 562.17-17.32 561.49-15.6 561.49-13.85L561.49-13.85 561.49-1.5Q561.49-0.9 561.04-0.45 560.59 0 559.99 0ZM601.79 0.5L601.79 0.5Q597.99 0.55 595.19-0.7 592.39-1.95 589.84-4.45L589.84-4.45Q589.59-4.65 589.41-4.95 589.24-5.25 589.24-5.65L589.24-5.65Q589.24-6.25 589.71-6.75 590.19-7.25 590.79-7.25L590.79-7.25Q591.39-7.25 591.89-6.75L591.89-6.75Q593.84-4.65 596.31-3.55 598.79-2.45 601.64-2.45L601.64-2.45Q604.04-2.45 605.91-3.2 607.79-3.95 608.89-5.35 609.99-6.75 609.99-8.6L609.99-8.6Q609.99-10.9 608.74-12.33 607.49-13.75 605.44-14.68 603.39-15.6 600.89-16.35L600.89-16.35Q598.84-16.95 596.99-17.73 595.14-18.5 593.69-19.63 592.24-20.75 591.44-22.4 590.64-24.05 590.64-26.4L590.64-26.4Q590.64-29.05 592.04-31.1 593.44-33.15 596.01-34.33 598.59-35.5 601.99-35.5L601.99-35.5Q604.94-35.5 607.66-34.5 610.39-33.5 611.99-31.55L611.99-31.55Q612.74-30.75 612.74-30.1L612.74-30.1Q612.74-29.6 612.24-29.1 611.74-28.6 611.14-28.6L611.14-28.6Q610.64-28.6 610.29-28.95L610.29-28.95Q609.44-30 608.14-30.83 606.84-31.65 605.26-32.1 603.69-32.55 601.99-32.55L601.99-32.55Q599.64-32.55 597.76-31.83 595.89-31.1 594.81-29.75 593.74-28.4 593.74-26.5L593.74-26.5Q593.74-24.4 594.94-23.05 596.14-21.7 598.09-20.83 600.04-19.95 602.24-19.2L602.24-19.2Q604.39-18.6 606.36-17.82 608.34-17.05 609.86-15.9 611.39-14.75 612.26-13 613.14-11.25 613.14-8.6L613.14-8.6Q613.14-6.05 611.69-4 610.24-1.95 607.71-0.75 605.19 0.45 601.79 0.5ZM617.84-25.45L617.84-25.45 629.49-25.45Q630.09-25.45 630.49-25.03 630.89-24.6 630.89-24L630.89-24Q630.89-23.45 630.49-23.05 630.09-22.65 629.49-22.65L629.49-22.65 617.84-22.65Q617.24-22.65 616.81-23.08 616.39-23.5 616.39-24.05L616.39-24.05Q616.39-24.65 616.81-25.05 617.24-25.45 617.84-25.45ZM622.99-32.5L622.99-32.5Q623.64-32.5 624.06-32.05 624.49-31.6 624.49-31L624.49-31 624.49-5.9Q624.49-4.5 624.86-3.8 625.24-3.1 625.84-2.88 626.44-2.65 627.04-2.65L627.04-2.65Q627.44-2.65 627.76-2.78 628.09-2.9 628.49-2.9L628.49-2.9Q628.94-2.9 629.26-2.55 629.59-2.2 629.59-1.65L629.59-1.65Q629.59-0.95 628.79-0.48 627.99 0 626.89 0L626.89 0Q626.44 0 625.54-0.08 624.64-0.15 623.69-0.63 622.74-1.1 622.11-2.3 621.49-3.5 621.49-5.75L621.49-5.75 621.49-31Q621.49-31.6 621.91-32.05 622.34-32.5 622.99-32.5ZM647.73 0.5L647.73 0.5Q643.88 0.5 640.93-1.15 637.98-2.8 636.33-5.75 634.68-8.7 634.68-12.65L634.68-12.65Q634.68-16.9 636.36-19.9 638.03-22.9 640.71-24.53 643.38-26.15 646.38-26.15L646.38-26.15Q648.58-26.15 650.66-25.38 652.73-24.6 654.36-23.08 655.98-21.55 656.96-19.35 657.93-17.15 658.03-14.25L658.03-14.25Q657.98-13.65 657.53-13.23 657.08-12.8 656.48-12.8L656.48-12.8 636.43-12.8 635.83-15.5 655.53-15.5 654.88-14.9 654.88-15.9Q654.68-18.25 653.38-19.9 652.08-21.55 650.23-22.4 648.38-23.25 646.38-23.25L646.38-23.25Q644.88-23.25 643.31-22.65 641.73-22.05 640.46-20.78 639.18-19.5 638.38-17.53 637.58-15.55 637.58-12.85L637.58-12.85Q637.58-9.9 638.78-7.5 639.98-5.1 642.26-3.7 644.53-2.3 647.68-2.3L647.68-2.3Q649.43-2.3 650.83-2.8 652.23-3.3 653.28-4.13 654.33-4.95 655.03-5.85L655.03-5.85Q655.58-6.3 656.13-6.3L656.13-6.3Q656.63-6.3 657.01-5.9 657.38-5.5 657.38-5L657.38-5Q657.38-4.4 656.88-3.95L656.88-3.95Q655.38-2.15 652.98-0.83 650.58 0.5 647.73 0.5ZM676.58-25.75L676.58-25.75Q679.98-25.75 682.61-24.08 685.23-22.4 686.78-19.48 688.33-16.55 688.33-12.75L688.33-12.75Q688.33-8.95 686.78-6 685.23-3.05 682.58-1.35 679.93 0.35 676.63 0.35L676.63 0.35Q674.88 0.35 673.31-0.18 671.73-0.7 670.43-1.6 669.13-2.5 668.13-3.73 667.13-4.95 666.53-6.4L666.53-6.4 667.43-7.05 667.43 8.5Q667.43 9.1 667.01 9.55 666.58 10 665.93 10L665.93 10Q665.28 10 664.86 9.55 664.43 9.1 664.43 8.5L664.43 8.5 664.43-24.1Q664.43-24.75 664.83-25.2 665.23-25.65 665.93-25.65L665.93-25.65Q666.58-25.65 667.01-25.2 667.43-24.75 667.43-24.1L667.43-24.1 667.43-18.7 666.73-19.1Q667.23-20.65 668.21-21.88 669.18-23.1 670.48-23.98 671.78-24.85 673.33-25.3 674.88-25.75 676.58-25.75ZM676.33-22.95L676.33-22.95Q673.63-22.95 671.58-21.63 669.53-20.3 668.36-18.03 667.18-15.75 667.18-12.75L667.18-12.75Q667.18-9.8 668.36-7.45 669.53-5.1 671.58-3.78 673.63-2.45 676.33-2.45L676.33-2.45Q678.98-2.45 681.01-3.78 683.03-5.1 684.23-7.45 685.43-9.8 685.43-12.75L685.43-12.75Q685.43-15.7 684.23-18 683.03-20.3 681.01-21.63 678.98-22.95 676.33-22.95Z" opacity="1" transform="matrix(1,0,0,1,0,0)" fill="black" class="slogan-text-1" id="SvgjsPath1669"></path></svg></g></svg></g></svg></g></svg></g></svg></g></svg></g></svg></g><defs><mask></mask></defs></svg><rect width="395.52" height="247.2" fill="black" stroke="none" visibility="hidden"></rect></g></mask><linearGradient x1="0.054" x2="0.941" y1="0.5" y2="0.5" id="73024cb7-7a68-4e46-b94d-e0ec8fd19ed0"><stop stop-color="#0f3054" offset="0"></stop><stop stop-color="#3b8dcb" offset="0.498"></stop><stop stop-color="#0f3054" offset="1"></stop></linearGradient><rect width="395.52" height="247.2" fill="url(#73024cb7-7a68-4e46-b94d-e0ec8fd19ed0)" mask="url(#dc14008a-df6a-412f-8235-0b046e9e0701)" data-fill-palette-color="primary"></rect><mask id="ff1af39c-3571-492a-b983-bcc0f26c1d50"><g id="SvgjsG1682"><svg viewBox="0 0 395.52 247.2" height="247.2" width="395.52"><g><svg></svg></g><g><svg viewBox="0 0 395.52 247.2" height="247.2" width="395.52"><g><path d="M55.039 247.2l45.763-79.264 2.864 0-44.252 76.648h276.692l-44.252-76.648 2.864 0 45.763 79.264zM197.76 0l45.763 79.264h-2.864l-42.899-74.303-42.899 74.303-2.864 0z" fill="black" fill-rule="nonzero" stroke="none" stroke-width="1" stroke-linecap="butt" stroke-linejoin="miter" stroke-miterlimit="10" stroke-dasharray="" stroke-dashoffset="0" font-family="none" font-weight="none" font-size="none" text-anchor="none" style="mix-blend-mode: normal"></path></g><g transform="matrix(1,0,0,1,0,91.93112266585774)"><svg viewBox="0 0 395.52 63.33775466828449" height="63.33775466828449" width="395.52"><g><svg viewBox="0 0 395.52 63.33775466828449" height="63.33775466828449" width="395.52"><g><svg viewBox="0 0 395.52 63.33775466828449" height="63.33775466828449" width="395.52"><g id="SvgjsG1681"><svg viewBox="0 0 395.52 63.33775466828449" height="63.33775466828449" width="395.52" id="SvgjsSvg1680"><g><rect width="106.79039999999999" height="3.7887199233024846" y="55.73976562955265" fill="black"></rect><rect width="106.79039999999999" height="3.7887199233024846" y="55.73976562955265" x="288.7296" fill="black"></rect></g><g><svg viewBox="0 0 395.52 42.01238153165607" height="42.01238153165607" width="395.52"><g transform="matrix(1,0,0,1,0,0)"><svg width="395.52" viewBox="2.22 -38.23 441.5 46.9" height="42.01238153165607" data-palette-color="url(#73024cb7-7a68-4e46-b94d-e0ec8fd19ed0)"></svg></g></svg></g><g transform="matrix(1,0,0,1,106.79039999999999,51.930496514123305)"><svg viewBox="0 0 181.9392 11.40725815416118" height="11.40725815416118" width="181.9392"><g transform="matrix(1,0,0,1,8,0)"><svg width="165.9392" viewBox="4.7 -37 683.63 47" height="11.40725815416118" data-palette-color="url(#ac6cbab2-6ca2-4786-b1a1-36c429ff451c)"><path d="M6.2-35L6.2-35 24.55-35Q25.15-35 25.6-34.58 26.05-34.15 26.05-33.5L26.05-33.5Q26.05-32.85 25.6-32.45 25.15-32.05 24.55-32.05L24.55-32.05 7.35-32.05 7.85-32.9 7.85-18.85 7.3-19.5 22.3-19.5Q22.9-19.5 23.35-19.05 23.8-18.6 23.8-18L23.8-18Q23.8-17.35 23.35-16.95 22.9-16.55 22.3-16.55L22.3-16.55 7.4-16.55 7.85-17.05 7.85-2.65 7.6-2.95 24.55-2.95Q25.15-2.95 25.6-2.5 26.05-2.05 26.05-1.45L26.05-1.45Q26.05-0.8 25.6-0.4 25.15 0 24.55 0L24.55 0 6.2 0Q5.6 0 5.15-0.45 4.7-0.9 4.7-1.5L4.7-1.5 4.7-33.5Q4.7-34.1 5.15-34.55 5.6-35 6.2-35ZM31-26.1L31-26.1Q31.4-26.1 31.8-25.85 32.2-25.6 32.4-25.1L32.4-25.1 41.15-4.3 40.5-3.9 49.45-25.1Q49.85-26.1 50.9-26.05L50.9-26.05Q51.4-26.05 51.85-25.73 52.3-25.4 52.3-24.8L52.3-24.8Q52.3-24.5 52.22-24.33 52.15-24.15 52.1-23.95L52.1-23.95 42.3-0.95Q41.9-0.05 40.95 0L40.95 0Q40.5 0.05 40.07-0.23 39.65-0.5 39.45-0.95L39.45-0.95 29.6-23.95Q29.55-24.05 29.5-24.25 29.45-24.45 29.45-24.65L29.45-24.65Q29.45-25.2 29.85-25.65 30.25-26.1 31-26.1ZM69.34 0.5L69.34 0.5Q65.5 0.5 62.55-1.15 59.6-2.8 57.95-5.75 56.3-8.7 56.3-12.65L56.3-12.65Q56.3-16.9 57.97-19.9 59.65-22.9 62.32-24.53 65-26.15 68-26.15L68-26.15Q70.2-26.15 72.27-25.38 74.34-24.6 75.97-23.08 77.59-21.55 78.57-19.35 79.55-17.15 79.65-14.25L79.65-14.25Q79.59-13.65 79.15-13.23 78.7-12.8 78.09-12.8L78.09-12.8 58.05-12.8 57.45-15.5 77.15-15.5 76.5-14.9 76.5-15.9Q76.3-18.25 75-19.9 73.7-21.55 71.84-22.4 70-23.25 68-23.25L68-23.25Q66.5-23.25 64.92-22.65 63.35-22.05 62.07-20.78 60.8-19.5 60-17.53 59.2-15.55 59.2-12.85L59.2-12.85Q59.2-9.9 60.4-7.5 61.6-5.1 63.87-3.7 66.15-2.3 69.3-2.3L69.3-2.3Q71.05-2.3 72.45-2.8 73.84-3.3 74.9-4.13 75.95-4.95 76.65-5.85L76.65-5.85Q77.2-6.3 77.75-6.3L77.75-6.3Q78.25-6.3 78.62-5.9 79-5.5 79-5L79-5Q79-4.4 78.5-3.95L78.5-3.95Q77-2.15 74.59-0.83 72.2 0.5 69.34 0.5ZM87.54 0L87.54 0Q86.84 0 86.44-0.45 86.04-0.9 86.04-1.5L86.04-1.5 86.04-23.9Q86.04-24.5 86.47-24.95 86.89-25.4 87.54-25.4L87.54-25.4Q88.19-25.4 88.62-24.95 89.04-24.5 89.04-23.9L89.04-23.9 89.04-16.4 88.29-16.25Q88.44-18 89.17-19.73 89.89-21.45 91.14-22.9 92.39-24.35 94.12-25.25 95.84-26.15 97.99-26.15L97.99-26.15Q98.89-26.15 99.74-25.78 100.59-25.4 100.59-24.55L100.59-24.55Q100.59-23.8 100.19-23.4 99.79-23 99.24-23L99.24-23Q98.79-23 98.27-23.25 97.74-23.5 96.89-23.5L96.89-23.5Q95.49-23.5 94.09-22.68 92.69-21.85 91.54-20.45 90.39-19.05 89.72-17.32 89.04-15.6 89.04-13.85L89.04-13.85 89.04-1.5Q89.04-0.9 88.59-0.45 88.14 0 87.54 0ZM124.34-26L124.34-26Q124.99-26 125.42-25.55 125.84-25.1 125.84-24.5L125.84-24.5 125.84-2.45Q125.84 1.6 124.24 4.38 122.64 7.15 119.94 8.58 117.24 10 113.79 10L113.79 10Q111.64 10 109.81 9.53 107.99 9.05 106.84 8.3L106.84 8.3Q106.24 7.95 105.94 7.45 105.64 6.95 105.89 6.4L105.89 6.4Q106.14 5.7 106.67 5.48 107.19 5.25 107.74 5.5L107.74 5.5Q108.59 5.95 110.19 6.6 111.79 7.25 113.84 7.25L113.84 7.25Q116.59 7.25 118.62 6.1 120.64 4.95 121.74 2.78 122.84 0.6 122.84-2.4L122.84-2.4 122.84-6 123.19-4.8Q122.44-3.25 121.06-2.05 119.69-0.85 117.92-0.18 116.14 0.5 114.14 0.5L114.14 0.5Q111.14 0.5 109.17-0.73 107.19-1.95 106.24-4.1 105.29-6.25 105.29-9.15L105.29-9.15 105.29-24.5Q105.29-25.1 105.69-25.55 106.09-26 106.79-26L106.79-26Q107.44-26 107.87-25.55 108.29-25.1 108.29-24.5L108.29-24.5 108.29-9.6Q108.29-6.1 109.81-4.2 111.34-2.3 114.79-2.3L114.79-2.3Q116.94-2.3 118.74-3.33 120.54-4.35 121.69-6.03 122.84-7.7 122.84-9.6L122.84-9.6 122.84-24.5Q122.84-25.1 123.27-25.55 123.69-26 124.34-26ZM132.04-25.45L132.04-25.45 143.69-25.45Q144.29-25.45 144.69-25.03 145.09-24.6 145.09-24L145.09-24Q145.09-23.45 144.69-23.05 144.29-22.65 143.69-22.65L143.69-22.65 132.04-22.65Q131.44-22.65 131.01-23.08 130.59-23.5 130.59-24.05L130.59-24.05Q130.59-24.65 131.01-25.05 131.44-25.45 132.04-25.45ZM137.19-32.5L137.19-32.5Q137.84-32.5 138.26-32.05 138.69-31.6 138.69-31L138.69-31 138.69-5.9Q138.69-4.5 139.06-3.8 139.44-3.1 140.04-2.88 140.64-2.65 141.24-2.65L141.24-2.65Q141.64-2.65 141.96-2.78 142.29-2.9 142.69-2.9L142.69-2.9Q143.14-2.9 143.46-2.55 143.79-2.2 143.79-1.65L143.79-1.65Q143.79-0.95 142.99-0.48 142.19 0 141.09 0L141.09 0Q140.64 0 139.74-0.08 138.84-0.15 137.89-0.63 136.94-1.1 136.31-2.3 135.69-3.5 135.69-5.75L135.69-5.75 135.69-31Q135.69-31.6 136.11-32.05 136.54-32.5 137.19-32.5ZM162.28-25.75L162.28-25.75Q165.44-25.75 167.38-24.4 169.34-23.05 170.26-20.75 171.19-18.45 171.19-15.65L171.19-15.65 171.19-1.5Q171.19-0.9 170.74-0.45 170.28 0 169.69 0L169.69 0Q168.99 0 168.59-0.45 168.19-0.9 168.19-1.5L168.19-1.5 168.19-15.65Q168.19-17.7 167.56-19.35 166.94-21 165.53-21.98 164.13-22.95 161.78-22.95L161.78-22.95Q159.69-22.95 157.81-21.98 155.94-21 154.78-19.35 153.63-17.7 153.63-15.65L153.63-15.65 153.63-1.5Q153.63-0.9 153.19-0.45 152.74 0 152.13 0L152.13 0Q151.44 0 151.03-0.45 150.63-0.9 150.63-1.5L150.63-1.5 150.63-35.5Q150.63-36.1 151.06-36.55 151.49-37 152.13-37L152.13-37Q152.78-37 153.21-36.55 153.63-36.1 153.63-35.5L153.63-35.5 153.63-19.3 152.49-17.55Q152.59-19.1 153.46-20.58 154.34-22.05 155.74-23.23 157.13-24.4 158.84-25.08 160.53-25.75 162.28-25.75ZM181.93-24.5L181.93-1.5Q181.93-0.9 181.48-0.45 181.03 0 180.43 0L180.43 0Q179.78 0 179.36-0.45 178.93-0.9 178.93-1.5L178.93-1.5 178.93-24.5Q178.93-25.1 179.36-25.55 179.78-26 180.43-26L180.43-26Q181.08-26 181.51-25.55 181.93-25.1 181.93-24.5L181.93-24.5ZM180.43-29.35L180.43-29.35Q179.38-29.35 178.86-29.83 178.33-30.3 178.33-31.2L178.33-31.2 178.33-31.7Q178.33-32.6 178.91-33.08 179.48-33.55 180.48-33.55L180.48-33.55Q181.43-33.55 181.96-33.08 182.48-32.6 182.48-31.7L182.48-31.7 182.48-31.2Q182.48-30.3 181.96-29.83 181.43-29.35 180.43-29.35ZM201.78-26.15L201.78-26.15Q205.08-26.15 207.06-24.83 209.03-23.5 209.91-21.23 210.78-18.95 210.78-16.2L210.78-16.2 210.78-1.5Q210.78-0.9 210.33-0.45 209.88 0 209.28 0L209.28 0Q208.58 0 208.18-0.45 207.78-0.9 207.78-1.5L207.78-1.5 207.78-16.05Q207.78-18.05 207.13-19.7 206.48-21.35 205-22.35 203.53-23.35 201.13-23.35L201.13-23.35Q198.98-23.35 197.06-22.35 195.13-21.35 193.93-19.7 192.73-18.05 192.73-16.05L192.73-16.05 192.73-1.5Q192.73-0.9 192.28-0.45 191.83 0 191.23 0L191.23 0Q190.53 0 190.13-0.45 189.73-0.9 189.73-1.5L189.73-1.5 189.73-23.9Q189.73-24.5 190.16-24.95 190.58-25.4 191.23-25.4L191.23-25.4Q191.88-25.4 192.31-24.95 192.73-24.5 192.73-23.9L192.73-23.9 192.73-19.7 191.58-17.9Q191.68-19.5 192.6-20.98 193.53-22.45 194.98-23.63 196.43-24.8 198.21-25.48 199.98-26.15 201.78-26.15ZM229.28-26.15L229.28-26.15Q231.53-26.15 233.43-25.38 235.33-24.6 236.75-23.38 238.18-22.15 238.98-20.78 239.78-19.4 239.78-18.15L239.78-18.15 238.93-19.35 238.93-24Q238.93-24.65 239.35-25.1 239.78-25.55 240.43-25.55L240.43-25.55Q241.13-25.55 241.53-25.1 241.93-24.65 241.93-24L241.93-24 241.93-2.35Q241.93 1.65 240.28 4.4 238.63 7.15 235.8 8.58 232.98 10 229.38 10L229.38 10Q227.63 10 225.7 9.55 223.78 9.1 222.4 8.4 221.03 7.7 220.88 6.95L220.88 6.95Q220.48 6.5 220.5 6.08 220.53 5.65 220.93 5.35L220.93 5.35Q221.43 5 221.98 5.28 222.53 5.55 223.63 6L223.63 6Q224.13 6.15 224.98 6.45 225.83 6.75 227 6.98 228.18 7.2 229.48 7.2L229.48 7.2Q233.98 7.2 236.45 4.63 238.93 2.05 238.93-2.15L238.93-2.15 238.93-6.95 239.48-6.8Q239.03-5 238-3.65 236.98-2.3 235.58-1.38 234.18-0.45 232.55 0.03 230.93 0.5 229.33 0.5L229.33 0.5Q225.88 0.5 223.13-1.25 220.38-3 218.75-6 217.13-9 217.13-12.85L217.13-12.85Q217.13-16.65 218.75-19.68 220.38-22.7 223.1-24.43 225.83-26.15 229.28-26.15ZM229.63-23.35L229.63-23.35Q226.88-23.35 224.7-21.98 222.53-20.6 221.3-18.23 220.08-15.85 220.08-12.85L220.08-12.85Q220.08-9.85 221.3-7.45 222.53-5.05 224.7-3.68 226.88-2.3 229.63-2.3L229.63-2.3Q232.38-2.3 234.53-3.65 236.68-5 237.93-7.38 239.18-9.75 239.18-12.85L239.18-12.85Q239.18-15.95 237.93-18.32 236.68-20.7 234.53-22.03 232.38-23.35 229.63-23.35ZM295.42-17.5L295.42-17.5Q295.42-13.55 294.2-10.28 292.97-7 290.72-4.58 288.47-2.15 285.4-0.83 282.32 0.5 278.67 0.5L278.67 0.5Q275.02 0.5 271.95-0.83 268.87-2.15 266.62-4.58 264.37-7 263.15-10.28 261.92-13.55 261.92-17.5L261.92-17.5Q261.92-21.45 263.15-24.73 264.37-28 266.62-30.43 268.87-32.85 271.95-34.18 275.02-35.5 278.67-35.5L278.67-35.5Q282.32-35.5 285.4-34.18 288.47-32.85 290.72-30.43 292.97-28 294.2-24.73 295.42-21.45 295.42-17.5ZM292.22-17.5L292.22-17.5Q292.22-21.95 290.5-25.33 288.77-28.7 285.72-30.6 282.67-32.5 278.67-32.5L278.67-32.5Q274.72-32.5 271.65-30.6 268.57-28.7 266.85-25.33 265.12-21.95 265.12-17.5L265.12-17.5Q265.12-13.05 266.85-9.68 268.57-6.3 271.65-4.4 274.72-2.5 278.67-2.5L278.67-2.5Q282.67-2.5 285.72-4.4 288.77-6.3 290.5-9.68 292.22-13.05 292.22-17.5ZM313.82-26.15L313.82-26.15Q317.12-26.15 319.09-24.83 321.07-23.5 321.94-21.23 322.82-18.95 322.82-16.2L322.82-16.2 322.82-1.5Q322.82-0.9 322.37-0.45 321.92 0 321.32 0L321.32 0Q320.62 0 320.22-0.45 319.82-0.9 319.82-1.5L319.82-1.5 319.82-16.05Q319.82-18.05 319.17-19.7 318.52-21.35 317.05-22.35 315.57-23.35 313.17-23.35L313.17-23.35Q311.02-23.35 309.09-22.35 307.17-21.35 305.97-19.7 304.77-18.05 304.77-16.05L304.77-16.05 304.77-1.5Q304.77-0.9 304.32-0.45 303.87 0 303.27 0L303.27 0Q302.57 0 302.17-0.45 301.77-0.9 301.77-1.5L301.77-1.5 301.77-23.9Q301.77-24.5 302.19-24.95 302.62-25.4 303.27-25.4L303.27-25.4Q303.92-25.4 304.34-24.95 304.77-24.5 304.77-23.9L304.77-23.9 304.77-19.7 303.62-17.9Q303.72-19.5 304.64-20.98 305.57-22.45 307.02-23.63 308.47-24.8 310.25-25.48 312.02-26.15 313.82-26.15ZM365.91-35.2L365.91-35.2Q366.56-35.2 366.99-34.73 367.41-34.25 367.41-33.7L367.41-33.7Q367.41-33.45 367.34-33.23 367.26-33 367.11-32.75L367.11-32.75 355.36-16.6 355.96-18.55 355.96-1.5Q355.96-0.9 355.51-0.45 355.06 0 354.41 0L354.41 0Q353.76 0 353.34-0.45 352.91-0.9 352.91-1.5L352.91-1.5 352.91-18.2 353.16-17 341.71-32.65Q341.51-32.9 341.41-33.18 341.31-33.45 341.31-33.7L341.31-33.7Q341.31-34.35 341.84-34.77 342.36-35.2 342.91-35.2L342.91-35.2Q343.66-35.2 344.16-34.5L344.16-34.5 354.91-19.85 354.16-19.95 364.61-34.5Q365.11-35.2 365.91-35.2ZM394.01-12.8L394.01-12.8Q394.01-9 392.36-5.98 390.71-2.95 387.86-1.23 385.01 0.5 381.36 0.5L381.36 0.5Q377.81 0.5 374.94-1.23 372.06-2.95 370.39-5.98 368.71-9 368.71-12.8L368.71-12.8Q368.71-16.65 370.39-19.65 372.06-22.65 374.94-24.4 377.81-26.15 381.36-26.15L381.36-26.15Q385.01-26.15 387.86-24.4 390.71-22.65 392.36-19.65 394.01-16.65 394.01-12.8ZM391.01-12.8L391.01-12.8Q391.01-15.85 389.76-18.23 388.51-20.6 386.34-21.98 384.16-23.35 381.36-23.35L381.36-23.35Q378.66-23.35 376.46-21.98 374.26-20.6 372.99-18.23 371.71-15.85 371.71-12.8L371.71-12.8Q371.71-9.75 372.99-7.4 374.26-5.05 376.46-3.68 378.66-2.3 381.36-2.3L381.36-2.3Q384.16-2.3 386.34-3.68 388.51-5.05 389.76-7.4 391.01-9.75 391.01-12.8ZM419.51-25.4L419.51-25.4Q420.16-25.4 420.58-24.95 421.01-24.5 421.01-23.9L421.01-23.9 421.01-9.8Q421.01-4.85 418.21-2.25 415.41 0.35 410.66 0.35L410.66 0.35Q405.96 0.35 403.18-2.25 400.41-4.85 400.41-9.8L400.41-9.8 400.41-23.9Q400.41-24.5 400.83-24.95 401.26-25.4 401.91-25.4L401.91-25.4Q402.56-25.4 402.98-24.95 403.41-24.5 403.41-23.9L403.41-23.9 403.41-9.8Q403.41-6.2 405.33-4.33 407.26-2.45 410.66-2.45L410.66-2.45Q414.11-2.45 416.06-4.33 418.01-6.2 418.01-9.8L418.01-9.8 418.01-23.9Q418.01-24.5 418.41-24.95 418.81-25.4 419.51-25.4ZM430.36 0L430.36 0Q429.66 0 429.26-0.45 428.86-0.9 428.86-1.5L428.86-1.5 428.86-23.9Q428.86-24.5 429.28-24.95 429.71-25.4 430.36-25.4L430.36-25.4Q431.01-25.4 431.43-24.95 431.86-24.5 431.86-23.9L431.86-23.9 431.86-16.4 431.11-16.25Q431.26-18 431.98-19.73 432.71-21.45 433.96-22.9 435.21-24.35 436.93-25.25 438.66-26.15 440.81-26.15L440.81-26.15Q441.71-26.15 442.56-25.78 443.41-25.4 443.41-24.55L443.41-24.55Q443.41-23.8 443.01-23.4 442.61-23 442.06-23L442.06-23Q441.61-23 441.08-23.25 440.56-23.5 439.71-23.5L439.71-23.5Q438.31-23.5 436.91-22.68 435.51-21.85 434.36-20.45 433.21-19.05 432.53-17.32 431.86-15.6 431.86-13.85L431.86-13.85 431.86-1.5Q431.86-0.9 431.41-0.45 430.96 0 430.36 0ZM464-35L476.75-35Q480.45-35 483.23-33.6 486-32.2 487.8-29.73 489.6-27.25 490.48-24.1 491.35-20.95 491.35-17.5L491.35-17.5Q491.35-12.7 489.78-8.72 488.2-4.75 484.98-2.38 481.75 0 476.75 0L476.75 0 464 0Q463.4 0 462.95-0.45 462.5-0.9 462.5-1.5L462.5-1.5 462.5-33.5Q462.5-34.1 462.95-34.55 463.4-35 464-35L464-35ZM465.35-2.95L476.25-2.95Q480.5-2.95 483.1-4.9 485.7-6.85 486.93-10.18 488.15-13.5 488.15-17.5L488.15-17.5Q488.15-20.4 487.48-23.03 486.8-25.65 485.38-27.68 483.95-29.7 481.68-30.88 479.4-32.05 476.25-32.05L476.25-32.05 465.3-32.05 465.65-32.5 465.65-2.45 465.35-2.95ZM521.9-12.8L521.9-12.8Q521.9-9 520.25-5.98 518.6-2.95 515.75-1.23 512.9 0.5 509.25 0.5L509.25 0.5Q505.7 0.5 502.82-1.23 499.95-2.95 498.27-5.98 496.6-9 496.6-12.8L496.6-12.8Q496.6-16.65 498.27-19.65 499.95-22.65 502.82-24.4 505.7-26.15 509.25-26.15L509.25-26.15Q512.9-26.15 515.75-24.4 518.6-22.65 520.25-19.65 521.9-16.65 521.9-12.8ZM518.9-12.8L518.9-12.8Q518.9-15.85 517.65-18.23 516.4-20.6 514.22-21.98 512.05-23.35 509.25-23.35L509.25-23.35Q506.55-23.35 504.35-21.98 502.15-20.6 500.87-18.23 499.6-15.85 499.6-12.8L499.6-12.8Q499.6-9.75 500.87-7.4 502.15-5.05 504.35-3.68 506.55-2.3 509.25-2.3L509.25-2.3Q512.05-2.3 514.22-3.68 516.4-5.05 517.65-7.4 518.9-9.75 518.9-12.8ZM552.1-12.8L552.1-12.8Q552.1-9 550.45-5.98 548.8-2.95 545.95-1.23 543.1 0.5 539.45 0.5L539.45 0.5Q535.9 0.5 533.02-1.23 530.15-2.95 528.47-5.98 526.8-9 526.8-12.8L526.8-12.8Q526.8-16.65 528.47-19.65 530.15-22.65 533.02-24.4 535.9-26.15 539.45-26.15L539.45-26.15Q543.1-26.15 545.95-24.4 548.8-22.65 550.45-19.65 552.1-16.65 552.1-12.8ZM549.1-12.8L549.1-12.8Q549.1-15.85 547.85-18.23 546.6-20.6 544.42-21.98 542.25-23.35 539.45-23.35L539.45-23.35Q536.75-23.35 534.55-21.98 532.35-20.6 531.07-18.23 529.8-15.85 529.8-12.8L529.8-12.8Q529.8-9.75 531.07-7.4 532.35-5.05 534.55-3.68 536.75-2.3 539.45-2.3L539.45-2.3Q542.25-2.3 544.42-3.68 546.6-5.05 547.85-7.4 549.1-9.75 549.1-12.8ZM559.99 0L559.99 0Q559.29 0 558.89-0.45 558.49-0.9 558.49-1.5L558.49-1.5 558.49-23.9Q558.49-24.5 558.92-24.95 559.34-25.4 559.99-25.4L559.99-25.4Q560.64-25.4 561.07-24.95 561.49-24.5 561.49-23.9L561.49-23.9 561.49-16.4 560.74-16.25Q560.89-18 561.62-19.73 562.34-21.45 563.59-22.9 564.84-24.35 566.57-25.25 568.29-26.15 570.44-26.15L570.44-26.15Q571.34-26.15 572.19-25.78 573.04-25.4 573.04-24.55L573.04-24.55Q573.04-23.8 572.64-23.4 572.24-23 571.69-23L571.69-23Q571.24-23 570.72-23.25 570.19-23.5 569.34-23.5L569.34-23.5Q567.94-23.5 566.54-22.68 565.14-21.85 563.99-20.45 562.84-19.05 562.17-17.32 561.49-15.6 561.49-13.85L561.49-13.85 561.49-1.5Q561.49-0.9 561.04-0.45 560.59 0 559.99 0ZM601.79 0.5L601.79 0.5Q597.99 0.55 595.19-0.7 592.39-1.95 589.84-4.45L589.84-4.45Q589.59-4.65 589.41-4.95 589.24-5.25 589.24-5.65L589.24-5.65Q589.24-6.25 589.71-6.75 590.19-7.25 590.79-7.25L590.79-7.25Q591.39-7.25 591.89-6.75L591.89-6.75Q593.84-4.65 596.31-3.55 598.79-2.45 601.64-2.45L601.64-2.45Q604.04-2.45 605.91-3.2 607.79-3.95 608.89-5.35 609.99-6.75 609.99-8.6L609.99-8.6Q609.99-10.9 608.74-12.33 607.49-13.75 605.44-14.68 603.39-15.6 600.89-16.35L600.89-16.35Q598.84-16.95 596.99-17.73 595.14-18.5 593.69-19.63 592.24-20.75 591.44-22.4 590.64-24.05 590.64-26.4L590.64-26.4Q590.64-29.05 592.04-31.1 593.44-33.15 596.01-34.33 598.59-35.5 601.99-35.5L601.99-35.5Q604.94-35.5 607.66-34.5 610.39-33.5 611.99-31.55L611.99-31.55Q612.74-30.75 612.74-30.1L612.74-30.1Q612.74-29.6 612.24-29.1 611.74-28.6 611.14-28.6L611.14-28.6Q610.64-28.6 610.29-28.95L610.29-28.95Q609.44-30 608.14-30.83 606.84-31.65 605.26-32.1 603.69-32.55 601.99-32.55L601.99-32.55Q599.64-32.55 597.76-31.83 595.89-31.1 594.81-29.75 593.74-28.4 593.74-26.5L593.74-26.5Q593.74-24.4 594.94-23.05 596.14-21.7 598.09-20.83 600.04-19.95 602.24-19.2L602.24-19.2Q604.39-18.6 606.36-17.82 608.34-17.05 609.86-15.9 611.39-14.75 612.26-13 613.14-11.25 613.14-8.6L613.14-8.6Q613.14-6.05 611.69-4 610.24-1.95 607.71-0.75 605.19 0.45 601.79 0.5ZM617.84-25.45L617.84-25.45 629.49-25.45Q630.09-25.45 630.49-25.03 630.89-24.6 630.89-24L630.89-24Q630.89-23.45 630.49-23.05 630.09-22.65 629.49-22.65L629.49-22.65 617.84-22.65Q617.24-22.65 616.81-23.08 616.39-23.5 616.39-24.05L616.39-24.05Q616.39-24.65 616.81-25.05 617.24-25.45 617.84-25.45ZM622.99-32.5L622.99-32.5Q623.64-32.5 624.06-32.05 624.49-31.6 624.49-31L624.49-31 624.49-5.9Q624.49-4.5 624.86-3.8 625.24-3.1 625.84-2.88 626.44-2.65 627.04-2.65L627.04-2.65Q627.44-2.65 627.76-2.78 628.09-2.9 628.49-2.9L628.49-2.9Q628.94-2.9 629.26-2.55 629.59-2.2 629.59-1.65L629.59-1.65Q629.59-0.95 628.79-0.48 627.99 0 626.89 0L626.89 0Q626.44 0 625.54-0.08 624.64-0.15 623.69-0.63 622.74-1.1 622.11-2.3 621.49-3.5 621.49-5.75L621.49-5.75 621.49-31Q621.49-31.6 621.91-32.05 622.34-32.5 622.99-32.5ZM647.73 0.5L647.73 0.5Q643.88 0.5 640.93-1.15 637.98-2.8 636.33-5.75 634.68-8.7 634.68-12.65L634.68-12.65Q634.68-16.9 636.36-19.9 638.03-22.9 640.71-24.53 643.38-26.15 646.38-26.15L646.38-26.15Q648.58-26.15 650.66-25.38 652.73-24.6 654.36-23.08 655.98-21.55 656.96-19.35 657.93-17.15 658.03-14.25L658.03-14.25Q657.98-13.65 657.53-13.23 657.08-12.8 656.48-12.8L656.48-12.8 636.43-12.8 635.83-15.5 655.53-15.5 654.88-14.9 654.88-15.9Q654.68-18.25 653.38-19.9 652.08-21.55 650.23-22.4 648.38-23.25 646.38-23.25L646.38-23.25Q644.88-23.25 643.31-22.65 641.73-22.05 640.46-20.78 639.18-19.5 638.38-17.53 637.58-15.55 637.58-12.85L637.58-12.85Q637.58-9.9 638.78-7.5 639.98-5.1 642.26-3.7 644.53-2.3 647.68-2.3L647.68-2.3Q649.43-2.3 650.83-2.8 652.23-3.3 653.28-4.13 654.33-4.95 655.03-5.85L655.03-5.85Q655.58-6.3 656.13-6.3L656.13-6.3Q656.63-6.3 657.01-5.9 657.38-5.5 657.38-5L657.38-5Q657.38-4.4 656.88-3.95L656.88-3.95Q655.38-2.15 652.98-0.83 650.58 0.5 647.73 0.5ZM676.58-25.75L676.58-25.75Q679.98-25.75 682.61-24.08 685.23-22.4 686.78-19.48 688.33-16.55 688.33-12.75L688.33-12.75Q688.33-8.95 686.78-6 685.23-3.05 682.58-1.35 679.93 0.35 676.63 0.35L676.63 0.35Q674.88 0.35 673.31-0.18 671.73-0.7 670.43-1.6 669.13-2.5 668.13-3.73 667.13-4.95 666.53-6.4L666.53-6.4 667.43-7.05 667.43 8.5Q667.43 9.1 667.01 9.55 666.58 10 665.93 10L665.93 10Q665.28 10 664.86 9.55 664.43 9.1 664.43 8.5L664.43 8.5 664.43-24.1Q664.43-24.75 664.83-25.2 665.23-25.65 665.93-25.65L665.93-25.65Q666.58-25.65 667.01-25.2 667.43-24.75 667.43-24.1L667.43-24.1 667.43-18.7 666.73-19.1Q667.23-20.65 668.21-21.88 669.18-23.1 670.48-23.98 671.78-24.85 673.33-25.3 674.88-25.75 676.58-25.75ZM676.33-22.95L676.33-22.95Q673.63-22.95 671.58-21.63 669.53-20.3 668.36-18.03 667.18-15.75 667.18-12.75L667.18-12.75Q667.18-9.8 668.36-7.45 669.53-5.1 671.58-3.78 673.63-2.45 676.33-2.45L676.33-2.45Q678.98-2.45 681.01-3.78 683.03-5.1 684.23-7.45 685.43-9.8 685.43-12.75L685.43-12.75Q685.43-15.7 684.23-18 683.03-20.3 681.01-21.63 678.98-22.95 676.33-22.95Z" opacity="1" transform="matrix(1,0,0,1,0,0)" fill="white" class="slogan-text-1" id="SvgjsPath1679"></path></svg></g></svg></g></svg></g></svg></g></svg></g></svg></g></svg></g><defs><mask></mask></defs><mask><g id="SvgjsG1678"><svg viewBox="0 0 395.52 247.2" height="247.2" width="395.52"><g><svg></svg></g><g><svg viewBox="0 0 395.52 247.2" height="247.2" width="395.52"><g><path d="M55.039 247.2l45.763-79.264 2.864 0-44.252 76.648h276.692l-44.252-76.648 2.864 0 45.763 79.264zM197.76 0l45.763 79.264h-2.864l-42.899-74.303-42.899 74.303-2.864 0z" fill="black" fill-rule="nonzero" stroke="none" stroke-width="1" stroke-linecap="butt" stroke-linejoin="miter" stroke-miterlimit="10" stroke-dasharray="" stroke-dashoffset="0" font-family="none" font-weight="none" font-size="none" text-anchor="none" style="mix-blend-mode: normal"></path></g><g transform="matrix(1,0,0,1,0,91.93112266585774)"><svg viewBox="0 0 395.52 63.33775466828449" height="63.33775466828449" width="395.52"><g><svg viewBox="0 0 395.52 63.33775466828449" height="63.33775466828449" width="395.52"><g><svg viewBox="0 0 395.52 63.33775466828449" height="63.33775466828449" width="395.52"><g id="SvgjsG1677"><svg viewBox="0 0 395.52 63.33775466828449" height="63.33775466828449" width="395.52" id="SvgjsSvg1676"><g><rect width="106.79039999999999" height="3.7887199233024846" y="55.73976562955265" fill="black"></rect><rect width="106.79039999999999" height="3.7887199233024846" y="55.73976562955265" x="288.7296" fill="black"></rect></g><g><svg viewBox="0 0 395.52 42.01238153165607" height="42.01238153165607" width="395.52"><g transform="matrix(1,0,0,1,0,0)"><svg width="395.52" viewBox="2.22 -38.23 441.5 46.9" height="42.01238153165607" data-palette-color="url(#73024cb7-7a68-4e46-b94d-e0ec8fd19ed0)"><path d="M4.32-1.76L4.32-1.76Q3.47-2.25 2.84-2.78 2.22-3.32 2.22-3.93L2.22-3.93Q2.22-5.1 3.22-5.1L3.22-5.1Q3.88-5.1 4.69-4.37 5.49-3.64 6.49-3.09 7.5-2.54 8.67-2.15L8.67-2.15Q11.08-1.34 13.13-1.34 15.19-1.34 16.3-1.61 17.41-1.88 18.16-2.34L18.16-2.34Q19.78-3.34 19.78-4.91L19.78-4.91Q19.78-6.35 18.38-7.81L18.38-7.81Q17.21-9.06 15.06-10.79L15.06-10.79 10.89-14.06Q4.61-18.9 3.49-22.9L3.49-22.9Q3.1-24.29 3.1-26 3.1-27.71 3.87-29.37 4.64-31.03 6.15-32.28L6.15-32.28Q9.4-34.99 14.99-34.99L14.99-34.99Q17.85-34.99 20.12-34.14 22.39-33.3 23.22-32.64 24.05-31.98 24.05-31.45L24.05-31.45Q24.05-30.32 23.12-30.32L23.12-30.32Q22.58-30.32 21.97-30.86 21.36-31.4 20.62-31.8 19.87-32.2 18.92-32.52L18.92-32.52Q16.87-33.2 14.89-33.2L14.89-33.2Q11.25-33.2 11.25-30.81L11.25-30.81Q11.25-29.81 11.91-28.96L11.91-28.96Q13.09-27.47 16.49-24.69 19.9-21.92 21.96-19.85 24.02-17.77 25.1-16.11L25.1-16.11Q26.81-13.5 26.81-10.68 26.81-7.86 25.82-5.9 24.83-3.93 23.05-2.51L23.05-2.51Q19.29 0.46 13.72 0.46 8.15 0.46 4.32-1.76ZM53.22-26.51L53.22-26.51Q61.81-26.51 61.81-18.16L61.81-18.16 61.81 0 51.32 0 51.32-23.75Q50.88-24.05 50.16-24.05 49.44-24.05 48.65-23.71 47.87-23.36 47.02-22.75L47.02-22.75Q45.19-21.41 43.77-19.38L43.77-19.38 43.77 0 33.27 0 33.27-34.55 43.77-34.55 43.77-21.95Q47.95-26.51 53.22-26.51ZM67.55-13.18L67.55-13.18Q67.55-16.11 68.61-18.52 69.67-20.92 71.53-22.71L71.53-22.71Q75.53-26.51 81.59-26.51L81.59-26.51Q87.76-26.51 91.65-22.56L91.65-22.56Q95.36-18.82 95.36-13.11L95.36-13.11Q95.36-7.37 91.55-3.52L91.55-3.52Q87.62 0.46 81.49 0.46L81.49 0.46Q75.51 0.46 71.58-3.32L71.58-3.32Q67.55-7.23 67.55-13.18ZM80.81-24.71L80.81-1.37Q81-1.34 81.2-1.34L81.2-1.34 81.54-1.34Q86.47-1.34 89.81-4.39L89.81-4.39Q93.38-7.69 93.38-13.04L93.38-13.04Q93.38-18.26 90.03-21.51L90.03-21.51Q86.74-24.73 81.51-24.73L81.51-24.73 81.15-24.73Q80.98-24.73 80.81-24.71L80.81-24.71ZM118.21 0.46L118.21 0.46Q114.81 0.46 111.64-1.07L111.64-1.07 111.64 7.81 101.6 7.81 101.6-26.07 111.64-26.07 111.64-24.73Q114.84-26.51 118.18-26.51 121.53-26.51 124.09-25.51 126.65-24.51 128.48-22.75L128.48-22.75Q132.27-19.04 132.27-13.26L132.27-13.26Q132.27-7.42 128.53-3.56L128.53-3.56Q124.68 0.46 118.21 0.46ZM118.13-24.73L118.13-24.73Q114.52-24.73 111.64-22.73L111.64-22.73 111.64-3.25Q114.93-1.34 118.82-1.34L118.82-1.34 119.45-1.34Q119.74-1.34 120.01-1.39L120.01-1.39 120.01-24.58Q119.08-24.73 118.13-24.73ZM155.12 0.46L155.12 0.46Q151.72 0.46 148.55-1.07L148.55-1.07 148.55 7.81 138.52 7.81 138.52-26.07 148.55-26.07 148.55-24.73Q151.75-26.51 155.09-26.51 158.44-26.51 161-25.51 163.56-24.51 165.4-22.75L165.4-22.75Q169.18-19.04 169.18-13.26L169.18-13.26Q169.18-7.42 165.44-3.56L165.44-3.56Q161.59 0.46 155.12 0.46ZM155.04-24.73L155.04-24.73Q151.43-24.73 148.55-22.73L148.55-22.73 148.55-3.25Q151.85-1.34 155.73-1.34L155.73-1.34 156.36-1.34Q156.66-1.34 156.92-1.39L156.92-1.39 156.92-24.58Q156-24.73 155.04-24.73ZM180.55-30.35Q178.04-30.35 176.62-31.47 175.21-32.59 175.21-34.42L175.21-34.42Q175.21-35.96 176.77-37.06L176.77-37.06Q178.43-38.23 180.29-38.23 182.14-38.23 183.15-37.87 184.17-37.5 184.88-36.91L184.88-36.91Q186.29-35.72 186.29-34.13L186.29-34.13Q186.29-32.54 184.68-31.45L184.68-31.45Q183.07-30.35 180.55-30.35ZM175.43 0L175.43-26.07 185.93-26.07 185.93 0 175.43 0ZM211.97 0L211.97-23.41Q211.36-23.8 210.65-23.8 209.95-23.8 209.19-23.47 208.43-23.14 207.6-22.56L207.6-22.56Q205.87-21.31 204.4-19.24L204.4-19.24 204.4 0 193.91 0 193.91-26.07 204.4-26.07 204.4-21.9Q208.58-26.51 213.85-26.51L213.85-26.51Q222.47-26.51 222.47-18.16L222.47-18.16 222.47 0 211.97 0ZM235.77-7.96L235.77-7.96Q233.6-7.3 233.6-6.52L233.6-6.52Q233.6-5.76 234.87-5.47L234.87-5.47Q237.34-4.88 241.66-4.77 245.98-4.66 248.16-4.11 250.35-3.56 251.64-2.73L251.64-2.73Q253.99-1.2 253.99 1.34L253.99 1.34Q253.99 4.52 250.84 6.49L250.84 6.49Q247.35 8.67 241 8.67L241 8.67Q234.43 8.67 230.16 6.71L230.16 6.71Q228.62 5.96 228.62 5L228.62 5Q228.62 4.59 228.93 4.35 229.23 4.1 229.57 4.1L229.57 4.1Q229.99 4.1 230.52 4.42L230.52 4.42Q231.77 5.13 232.83 5.6 233.89 6.08 236.16 6.52 238.43 6.96 240.55 6.96 242.66 6.96 243.99 6.77 245.32 6.59 246.2 6.35L246.2 6.35Q247.93 5.83 247.93 5.2L247.93 5.2Q247.93 4.61 247.59 4.35 247.25 4.08 246.7 3.87 246.15 3.66 245.17 3.49L245.17 3.49Q243.17 3.15 239.73 2.98 236.29 2.81 234.28 2.31 232.28 1.81 231.01 1.03L231.01 1.03Q228.55-0.46 228.55-3L228.55-3Q228.55-6.67 233.5-8.94L233.5-8.94Q231.23-10.18 229.89-12.22 228.55-14.26 228.55-16.64 228.55-19.02 229.44-20.76 230.33-22.51 231.94-23.78L231.94-23.78Q235.33-26.51 240.71-26.51L240.71-26.51Q243.1-26.51 245.51-25.78L245.51-25.78Q248.98-29.13 251.94-29.13L251.94-29.13Q253.18-29.13 253.78-28.71 254.38-28.3 254.38-27.66L254.38-27.66Q254.38-27.03 253.96-26.75 253.55-26.46 253.18-26.46L253.18-26.46Q252.52-26.46 252.06-26.61L252.06-26.61Q251.37-26.86 250.67-26.86L250.67-26.86Q249.35-26.86 247.35-25.02L247.35-25.02Q251.33-23.07 252.55-19.41L252.55-19.41Q252.94-18.19 252.94-16.42 252.94-14.65 251.91-12.89 250.89-11.13 249.18-9.86L249.18-9.86Q245.61-7.23 240.8-7.23L240.8-7.23Q238.26-7.18 235.77-7.96ZM240.9-24.78L240.9-9.01Q244.86-9.06 247.71-10.94L247.71-10.94Q251.01-13.09 251.01-16.75 251.01-20.41 247.76-22.66L247.76-22.66Q244.78-24.71 240.9-24.78L240.9-24.78ZM258.11-2.66L258.11-2.66Q257.74-3.64 257.74-4.71 257.74-5.79 258.17-6.68 258.6-7.57 259.38-8.25L259.38-8.25Q261.04-9.74 263.53-9.74L263.53-9.74Q266.09-9.74 267.68-8.06L267.68-8.06Q269.15-6.52 269.15-4.44L269.15-4.44Q269.15-2.37 267.48-0.98L267.48-0.98Q265.78 0.46 263.38 0.46L263.38 0.46Q259.33 0.46 258.11-2.66ZM274.07-13.18L274.07-13.18Q274.07-16.11 275.14-18.52 276.2-20.92 278.05-22.71L278.05-22.71Q282.06-26.51 288.11-26.51L288.11-26.51Q294.29-26.51 298.17-22.56L298.17-22.56Q301.88-18.82 301.88-13.11L301.88-13.11Q301.88-7.37 298.07-3.52L298.07-3.52Q294.14 0.46 288.01 0.46L288.01 0.46Q282.03 0.46 278.1-3.32L278.1-3.32Q274.07-7.23 274.07-13.18ZM287.33-24.71L287.33-1.37Q287.53-1.34 287.72-1.34L287.72-1.34 288.06-1.34Q293-1.34 296.34-4.39L296.34-4.39Q299.9-7.69 299.9-13.04L299.9-13.04Q299.9-18.26 296.56-21.51L296.56-21.51Q293.26-24.73 288.04-24.73L288.04-24.73 287.67-24.73Q287.5-24.73 287.33-24.71L287.33-24.71ZM326.2 0L326.2-23.41Q325.59-23.8 324.88-23.8 324.17-23.8 323.41-23.47 322.66-23.14 321.83-22.56L321.83-22.56Q320.09-21.31 318.63-19.24L318.63-19.24 318.63 0 308.13 0 308.13-26.07 318.63-26.07 318.63-21.9Q322.8-26.51 328.08-26.51L328.08-26.51Q336.69-26.51 336.69-18.16L336.69-18.16 336.69 0 326.2 0ZM344.67 0L344.67-34.55 355.17-34.55 355.17 0 344.67 0ZM368.28-30.35Q365.77-30.35 364.35-31.47 362.93-32.59 362.93-34.42L362.93-34.42Q362.93-35.96 364.5-37.06L364.5-37.06Q366.16-38.23 368.01-38.23 369.87-38.23 370.88-37.87 371.89-37.5 372.6-36.91L372.6-36.91Q374.02-35.72 374.02-34.13L374.02-34.13Q374.02-32.54 372.41-31.45L372.41-31.45Q370.8-30.35 368.28-30.35ZM363.15 0L363.15-26.07 373.65-26.07 373.65 0 363.15 0ZM399.7 0L399.7-23.41Q399.09-23.8 398.38-23.8 397.67-23.8 396.92-23.47 396.16-23.14 395.33-22.56L395.33-22.56Q393.6-21.31 392.13-19.24L392.13-19.24 392.13 0 381.63 0 381.63-26.07 392.13-26.07 392.13-21.9Q396.31-26.51 401.58-26.51L401.58-26.51Q410.2-26.51 410.2-18.16L410.2-18.16 410.2 0 399.7 0ZM440.83-5.93L440.83-5.93Q441.79-5.93 441.79-5.05L441.79-5.05Q441.79-4.39 440.93-3.49L440.93-3.49Q437.07 0.46 430.36 0.46L430.36 0.46Q424.33 0.46 420.2-3.17L420.2-3.17Q415.93-6.96 415.93-12.74L415.93-12.74Q415.93-18.65 419.79-22.46L419.79-22.46Q423.87-26.51 430.63-26.51L430.63-26.51Q436.05-26.51 439.74-23.22L439.74-23.22Q443.72-19.68 443.72-13.92L443.72-13.92Q443.72-13.09 443.67-12.16L443.67-12.16 427.55-12.16 427.55-1.68Q429.21-1.34 431.29-1.34L431.29-1.34Q435.68-1.34 438.78-4.25L438.78-4.25Q439.42-4.88 439.69-5.25L439.69-5.25Q440.25-5.93 440.83-5.93ZM434.32-13.94L434.32-24.27Q432.73-24.73 430.73-24.73 428.72-24.73 427.55-24.46L427.55-24.46 427.55-13.94 434.32-13.94Z" opacity="1" transform="matrix(1,0,0,1,0,0)" fill="black" class="wordmark-text-0" id="SvgjsPath1675"></path></svg></g></svg></g><g transform="matrix(1,0,0,1,106.79039999999999,51.930496514123305)"><svg viewBox="0 0 181.9392 11.40725815416118" height="11.40725815416118" width="181.9392"><g transform="matrix(1,0,0,1,8,0)"><svg width="165.9392" viewBox="4.7 -37 683.63 47" height="11.40725815416118" data-palette-color="url(#ac6cbab2-6ca2-4786-b1a1-36c429ff451c)"><path d="M6.2-35L6.2-35 24.55-35Q25.15-35 25.6-34.58 26.05-34.15 26.05-33.5L26.05-33.5Q26.05-32.85 25.6-32.45 25.15-32.05 24.55-32.05L24.55-32.05 7.35-32.05 7.85-32.9 7.85-18.85 7.3-19.5 22.3-19.5Q22.9-19.5 23.35-19.05 23.8-18.6 23.8-18L23.8-18Q23.8-17.35 23.35-16.95 22.9-16.55 22.3-16.55L22.3-16.55 7.4-16.55 7.85-17.05 7.85-2.65 7.6-2.95 24.55-2.95Q25.15-2.95 25.6-2.5 26.05-2.05 26.05-1.45L26.05-1.45Q26.05-0.8 25.6-0.4 25.15 0 24.55 0L24.55 0 6.2 0Q5.6 0 5.15-0.45 4.7-0.9 4.7-1.5L4.7-1.5 4.7-33.5Q4.7-34.1 5.15-34.55 5.6-35 6.2-35ZM31-26.1L31-26.1Q31.4-26.1 31.8-25.85 32.2-25.6 32.4-25.1L32.4-25.1 41.15-4.3 40.5-3.9 49.45-25.1Q49.85-26.1 50.9-26.05L50.9-26.05Q51.4-26.05 51.85-25.73 52.3-25.4 52.3-24.8L52.3-24.8Q52.3-24.5 52.22-24.33 52.15-24.15 52.1-23.95L52.1-23.95 42.3-0.95Q41.9-0.05 40.95 0L40.95 0Q40.5 0.05 40.07-0.23 39.65-0.5 39.45-0.95L39.45-0.95 29.6-23.95Q29.55-24.05 29.5-24.25 29.45-24.45 29.45-24.65L29.45-24.65Q29.45-25.2 29.85-25.65 30.25-26.1 31-26.1ZM69.34 0.5L69.34 0.5Q65.5 0.5 62.55-1.15 59.6-2.8 57.95-5.75 56.3-8.7 56.3-12.65L56.3-12.65Q56.3-16.9 57.97-19.9 59.65-22.9 62.32-24.53 65-26.15 68-26.15L68-26.15Q70.2-26.15 72.27-25.38 74.34-24.6 75.97-23.08 77.59-21.55 78.57-19.35 79.55-17.15 79.65-14.25L79.65-14.25Q79.59-13.65 79.15-13.23 78.7-12.8 78.09-12.8L78.09-12.8 58.05-12.8 57.45-15.5 77.15-15.5 76.5-14.9 76.5-15.9Q76.3-18.25 75-19.9 73.7-21.55 71.84-22.4 70-23.25 68-23.25L68-23.25Q66.5-23.25 64.92-22.65 63.35-22.05 62.07-20.78 60.8-19.5 60-17.53 59.2-15.55 59.2-12.85L59.2-12.85Q59.2-9.9 60.4-7.5 61.6-5.1 63.87-3.7 66.15-2.3 69.3-2.3L69.3-2.3Q71.05-2.3 72.45-2.8 73.84-3.3 74.9-4.13 75.95-4.95 76.65-5.85L76.65-5.85Q77.2-6.3 77.75-6.3L77.75-6.3Q78.25-6.3 78.62-5.9 79-5.5 79-5L79-5Q79-4.4 78.5-3.95L78.5-3.95Q77-2.15 74.59-0.83 72.2 0.5 69.34 0.5ZM87.54 0L87.54 0Q86.84 0 86.44-0.45 86.04-0.9 86.04-1.5L86.04-1.5 86.04-23.9Q86.04-24.5 86.47-24.95 86.89-25.4 87.54-25.4L87.54-25.4Q88.19-25.4 88.62-24.95 89.04-24.5 89.04-23.9L89.04-23.9 89.04-16.4 88.29-16.25Q88.44-18 89.17-19.73 89.89-21.45 91.14-22.9 92.39-24.35 94.12-25.25 95.84-26.15 97.99-26.15L97.99-26.15Q98.89-26.15 99.74-25.78 100.59-25.4 100.59-24.55L100.59-24.55Q100.59-23.8 100.19-23.4 99.79-23 99.24-23L99.24-23Q98.79-23 98.27-23.25 97.74-23.5 96.89-23.5L96.89-23.5Q95.49-23.5 94.09-22.68 92.69-21.85 91.54-20.45 90.39-19.05 89.72-17.32 89.04-15.6 89.04-13.85L89.04-13.85 89.04-1.5Q89.04-0.9 88.59-0.45 88.14 0 87.54 0ZM124.34-26L124.34-26Q124.99-26 125.42-25.55 125.84-25.1 125.84-24.5L125.84-24.5 125.84-2.45Q125.84 1.6 124.24 4.38 122.64 7.15 119.94 8.58 117.24 10 113.79 10L113.79 10Q111.64 10 109.81 9.53 107.99 9.05 106.84 8.3L106.84 8.3Q106.24 7.95 105.94 7.45 105.64 6.95 105.89 6.4L105.89 6.4Q106.14 5.7 106.67 5.48 107.19 5.25 107.74 5.5L107.74 5.5Q108.59 5.95 110.19 6.6 111.79 7.25 113.84 7.25L113.84 7.25Q116.59 7.25 118.62 6.1 120.64 4.95 121.74 2.78 122.84 0.6 122.84-2.4L122.84-2.4 122.84-6 123.19-4.8Q122.44-3.25 121.06-2.05 119.69-0.85 117.92-0.18 116.14 0.5 114.14 0.5L114.14 0.5Q111.14 0.5 109.17-0.73 107.19-1.95 106.24-4.1 105.29-6.25 105.29-9.15L105.29-9.15 105.29-24.5Q105.29-25.1 105.69-25.55 106.09-26 106.79-26L106.79-26Q107.44-26 107.87-25.55 108.29-25.1 108.29-24.5L108.29-24.5 108.29-9.6Q108.29-6.1 109.81-4.2 111.34-2.3 114.79-2.3L114.79-2.3Q116.94-2.3 118.74-3.33 120.54-4.35 121.69-6.03 122.84-7.7 122.84-9.6L122.84-9.6 122.84-24.5Q122.84-25.1 123.27-25.55 123.69-26 124.34-26ZM132.04-25.45L132.04-25.45 143.69-25.45Q144.29-25.45 144.69-25.03 145.09-24.6 145.09-24L145.09-24Q145.09-23.45 144.69-23.05 144.29-22.65 143.69-22.65L143.69-22.65 132.04-22.65Q131.44-22.65 131.01-23.08 130.59-23.5 130.59-24.05L130.59-24.05Q130.59-24.65 131.01-25.05 131.44-25.45 132.04-25.45ZM137.19-32.5L137.19-32.5Q137.84-32.5 138.26-32.05 138.69-31.6 138.69-31L138.69-31 138.69-5.9Q138.69-4.5 139.06-3.8 139.44-3.1 140.04-2.88 140.64-2.65 141.24-2.65L141.24-2.65Q141.64-2.65 141.96-2.78 142.29-2.9 142.69-2.9L142.69-2.9Q143.14-2.9 143.46-2.55 143.79-2.2 143.79-1.65L143.79-1.65Q143.79-0.95 142.99-0.48 142.19 0 141.09 0L141.09 0Q140.64 0 139.74-0.08 138.84-0.15 137.89-0.63 136.94-1.1 136.31-2.3 135.69-3.5 135.69-5.75L135.69-5.75 135.69-31Q135.69-31.6 136.11-32.05 136.54-32.5 137.19-32.5ZM162.28-25.75L162.28-25.75Q165.44-25.75 167.38-24.4 169.34-23.05 170.26-20.75 171.19-18.45 171.19-15.65L171.19-15.65 171.19-1.5Q171.19-0.9 170.74-0.45 170.28 0 169.69 0L169.69 0Q168.99 0 168.59-0.45 168.19-0.9 168.19-1.5L168.19-1.5 168.19-15.65Q168.19-17.7 167.56-19.35 166.94-21 165.53-21.98 164.13-22.95 161.78-22.95L161.78-22.95Q159.69-22.95 157.81-21.98 155.94-21 154.78-19.35 153.63-17.7 153.63-15.65L153.63-15.65 153.63-1.5Q153.63-0.9 153.19-0.45 152.74 0 152.13 0L152.13 0Q151.44 0 151.03-0.45 150.63-0.9 150.63-1.5L150.63-1.5 150.63-35.5Q150.63-36.1 151.06-36.55 151.49-37 152.13-37L152.13-37Q152.78-37 153.21-36.55 153.63-36.1 153.63-35.5L153.63-35.5 153.63-19.3 152.49-17.55Q152.59-19.1 153.46-20.58 154.34-22.05 155.74-23.23 157.13-24.4 158.84-25.08 160.53-25.75 162.28-25.75ZM181.93-24.5L181.93-1.5Q181.93-0.9 181.48-0.45 181.03 0 180.43 0L180.43 0Q179.78 0 179.36-0.45 178.93-0.9 178.93-1.5L178.93-1.5 178.93-24.5Q178.93-25.1 179.36-25.55 179.78-26 180.43-26L180.43-26Q181.08-26 181.51-25.55 181.93-25.1 181.93-24.5L181.93-24.5ZM180.43-29.35L180.43-29.35Q179.38-29.35 178.86-29.83 178.33-30.3 178.33-31.2L178.33-31.2 178.33-31.7Q178.33-32.6 178.91-33.08 179.48-33.55 180.48-33.55L180.48-33.55Q181.43-33.55 181.96-33.08 182.48-32.6 182.48-31.7L182.48-31.7 182.48-31.2Q182.48-30.3 181.96-29.83 181.43-29.35 180.43-29.35ZM201.78-26.15L201.78-26.15Q205.08-26.15 207.06-24.83 209.03-23.5 209.91-21.23 210.78-18.95 210.78-16.2L210.78-16.2 210.78-1.5Q210.78-0.9 210.33-0.45 209.88 0 209.28 0L209.28 0Q208.58 0 208.18-0.45 207.78-0.9 207.78-1.5L207.78-1.5 207.78-16.05Q207.78-18.05 207.13-19.7 206.48-21.35 205-22.35 203.53-23.35 201.13-23.35L201.13-23.35Q198.98-23.35 197.06-22.35 195.13-21.35 193.93-19.7 192.73-18.05 192.73-16.05L192.73-16.05 192.73-1.5Q192.73-0.9 192.28-0.45 191.83 0 191.23 0L191.23 0Q190.53 0 190.13-0.45 189.73-0.9 189.73-1.5L189.73-1.5 189.73-23.9Q189.73-24.5 190.16-24.95 190.58-25.4 191.23-25.4L191.23-25.4Q191.88-25.4 192.31-24.95 192.73-24.5 192.73-23.9L192.73-23.9 192.73-19.7 191.58-17.9Q191.68-19.5 192.6-20.98 193.53-22.45 194.98-23.63 196.43-24.8 198.21-25.48 199.98-26.15 201.78-26.15ZM229.28-26.15L229.28-26.15Q231.53-26.15 233.43-25.38 235.33-24.6 236.75-23.38 238.18-22.15 238.98-20.78 239.78-19.4 239.78-18.15L239.78-18.15 238.93-19.35 238.93-24Q238.93-24.65 239.35-25.1 239.78-25.55 240.43-25.55L240.43-25.55Q241.13-25.55 241.53-25.1 241.93-24.65 241.93-24L241.93-24 241.93-2.35Q241.93 1.65 240.28 4.4 238.63 7.15 235.8 8.58 232.98 10 229.38 10L229.38 10Q227.63 10 225.7 9.55 223.78 9.1 222.4 8.4 221.03 7.7 220.88 6.95L220.88 6.95Q220.48 6.5 220.5 6.08 220.53 5.65 220.93 5.35L220.93 5.35Q221.43 5 221.98 5.28 222.53 5.55 223.63 6L223.63 6Q224.13 6.15 224.98 6.45 225.83 6.75 227 6.98 228.18 7.2 229.48 7.2L229.48 7.2Q233.98 7.2 236.45 4.63 238.93 2.05 238.93-2.15L238.93-2.15 238.93-6.95 239.48-6.8Q239.03-5 238-3.65 236.98-2.3 235.58-1.38 234.18-0.45 232.55 0.03 230.93 0.5 229.33 0.5L229.33 0.5Q225.88 0.5 223.13-1.25 220.38-3 218.75-6 217.13-9 217.13-12.85L217.13-12.85Q217.13-16.65 218.75-19.68 220.38-22.7 223.1-24.43 225.83-26.15 229.28-26.15ZM229.63-23.35L229.63-23.35Q226.88-23.35 224.7-21.98 222.53-20.6 221.3-18.23 220.08-15.85 220.08-12.85L220.08-12.85Q220.08-9.85 221.3-7.45 222.53-5.05 224.7-3.68 226.88-2.3 229.63-2.3L229.63-2.3Q232.38-2.3 234.53-3.65 236.68-5 237.93-7.38 239.18-9.75 239.18-12.85L239.18-12.85Q239.18-15.95 237.93-18.32 236.68-20.7 234.53-22.03 232.38-23.35 229.63-23.35ZM295.42-17.5L295.42-17.5Q295.42-13.55 294.2-10.28 292.97-7 290.72-4.58 288.47-2.15 285.4-0.83 282.32 0.5 278.67 0.5L278.67 0.5Q275.02 0.5 271.95-0.83 268.87-2.15 266.62-4.58 264.37-7 263.15-10.28 261.92-13.55 261.92-17.5L261.92-17.5Q261.92-21.45 263.15-24.73 264.37-28 266.62-30.43 268.87-32.85 271.95-34.18 275.02-35.5 278.67-35.5L278.67-35.5Q282.32-35.5 285.4-34.18 288.47-32.85 290.72-30.43 292.97-28 294.2-24.73 295.42-21.45 295.42-17.5ZM292.22-17.5L292.22-17.5Q292.22-21.95 290.5-25.33 288.77-28.7 285.72-30.6 282.67-32.5 278.67-32.5L278.67-32.5Q274.72-32.5 271.65-30.6 268.57-28.7 266.85-25.33 265.12-21.95 265.12-17.5L265.12-17.5Q265.12-13.05 266.85-9.68 268.57-6.3 271.65-4.4 274.72-2.5 278.67-2.5L278.67-2.5Q282.67-2.5 285.72-4.4 288.77-6.3 290.5-9.68 292.22-13.05 292.22-17.5ZM313.82-26.15L313.82-26.15Q317.12-26.15 319.09-24.83 321.07-23.5 321.94-21.23 322.82-18.95 322.82-16.2L322.82-16.2 322.82-1.5Q322.82-0.9 322.37-0.45 321.92 0 321.32 0L321.32 0Q320.62 0 320.22-0.45 319.82-0.9 319.82-1.5L319.82-1.5 319.82-16.05Q319.82-18.05 319.17-19.7 318.52-21.35 317.05-22.35 315.57-23.35 313.17-23.35L313.17-23.35Q311.02-23.35 309.09-22.35 307.17-21.35 305.97-19.7 304.77-18.05 304.77-16.05L304.77-16.05 304.77-1.5Q304.77-0.9 304.32-0.45 303.87 0 303.27 0L303.27 0Q302.57 0 302.17-0.45 301.77-0.9 301.77-1.5L301.77-1.5 301.77-23.9Q301.77-24.5 302.19-24.95 302.62-25.4 303.27-25.4L303.27-25.4Q303.92-25.4 304.34-24.95 304.77-24.5 304.77-23.9L304.77-23.9 304.77-19.7 303.62-17.9Q303.72-19.5 304.64-20.98 305.57-22.45 307.02-23.63 308.47-24.8 310.25-25.48 312.02-26.15 313.82-26.15ZM365.91-35.2L365.91-35.2Q366.56-35.2 366.99-34.73 367.41-34.25 367.41-33.7L367.41-33.7Q367.41-33.45 367.34-33.23 367.26-33 367.11-32.75L367.11-32.75 355.36-16.6 355.96-18.55 355.96-1.5Q355.96-0.9 355.51-0.45 355.06 0 354.41 0L354.41 0Q353.76 0 353.34-0.45 352.91-0.9 352.91-1.5L352.91-1.5 352.91-18.2 353.16-17 341.71-32.65Q341.51-32.9 341.41-33.18 341.31-33.45 341.31-33.7L341.31-33.7Q341.31-34.35 341.84-34.77 342.36-35.2 342.91-35.2L342.91-35.2Q343.66-35.2 344.16-34.5L344.16-34.5 354.91-19.85 354.16-19.95 364.61-34.5Q365.11-35.2 365.91-35.2ZM394.01-12.8L394.01-12.8Q394.01-9 392.36-5.98 390.71-2.95 387.86-1.23 385.01 0.5 381.36 0.5L381.36 0.5Q377.81 0.5 374.94-1.23 372.06-2.95 370.39-5.98 368.71-9 368.71-12.8L368.71-12.8Q368.71-16.65 370.39-19.65 372.06-22.65 374.94-24.4 377.81-26.15 381.36-26.15L381.36-26.15Q385.01-26.15 387.86-24.4 390.71-22.65 392.36-19.65 394.01-16.65 394.01-12.8ZM391.01-12.8L391.01-12.8Q391.01-15.85 389.76-18.23 388.51-20.6 386.34-21.98 384.16-23.35 381.36-23.35L381.36-23.35Q378.66-23.35 376.46-21.98 374.26-20.6 372.99-18.23 371.71-15.85 371.71-12.8L371.71-12.8Q371.71-9.75 372.99-7.4 374.26-5.05 376.46-3.68 378.66-2.3 381.36-2.3L381.36-2.3Q384.16-2.3 386.34-3.68 388.51-5.05 389.76-7.4 391.01-9.75 391.01-12.8ZM419.51-25.4L419.51-25.4Q420.16-25.4 420.58-24.95 421.01-24.5 421.01-23.9L421.01-23.9 421.01-9.8Q421.01-4.85 418.21-2.25 415.41 0.35 410.66 0.35L410.66 0.35Q405.96 0.35 403.18-2.25 400.41-4.85 400.41-9.8L400.41-9.8 400.41-23.9Q400.41-24.5 400.83-24.95 401.26-25.4 401.91-25.4L401.91-25.4Q402.56-25.4 402.98-24.95 403.41-24.5 403.41-23.9L403.41-23.9 403.41-9.8Q403.41-6.2 405.33-4.33 407.26-2.45 410.66-2.45L410.66-2.45Q414.11-2.45 416.06-4.33 418.01-6.2 418.01-9.8L418.01-9.8 418.01-23.9Q418.01-24.5 418.41-24.95 418.81-25.4 419.51-25.4ZM430.36 0L430.36 0Q429.66 0 429.26-0.45 428.86-0.9 428.86-1.5L428.86-1.5 428.86-23.9Q428.86-24.5 429.28-24.95 429.71-25.4 430.36-25.4L430.36-25.4Q431.01-25.4 431.43-24.95 431.86-24.5 431.86-23.9L431.86-23.9 431.86-16.4 431.11-16.25Q431.26-18 431.98-19.73 432.71-21.45 433.96-22.9 435.21-24.35 436.93-25.25 438.66-26.15 440.81-26.15L440.81-26.15Q441.71-26.15 442.56-25.78 443.41-25.4 443.41-24.55L443.41-24.55Q443.41-23.8 443.01-23.4 442.61-23 442.06-23L442.06-23Q441.61-23 441.08-23.25 440.56-23.5 439.71-23.5L439.71-23.5Q438.31-23.5 436.91-22.68 435.51-21.85 434.36-20.45 433.21-19.05 432.53-17.32 431.86-15.6 431.86-13.85L431.86-13.85 431.86-1.5Q431.86-0.9 431.41-0.45 430.96 0 430.36 0ZM464-35L476.75-35Q480.45-35 483.23-33.6 486-32.2 487.8-29.73 489.6-27.25 490.48-24.1 491.35-20.95 491.35-17.5L491.35-17.5Q491.35-12.7 489.78-8.72 488.2-4.75 484.98-2.38 481.75 0 476.75 0L476.75 0 464 0Q463.4 0 462.95-0.45 462.5-0.9 462.5-1.5L462.5-1.5 462.5-33.5Q462.5-34.1 462.95-34.55 463.4-35 464-35L464-35ZM465.35-2.95L476.25-2.95Q480.5-2.95 483.1-4.9 485.7-6.85 486.93-10.18 488.15-13.5 488.15-17.5L488.15-17.5Q488.15-20.4 487.48-23.03 486.8-25.65 485.38-27.68 483.95-29.7 481.68-30.88 479.4-32.05 476.25-32.05L476.25-32.05 465.3-32.05 465.65-32.5 465.65-2.45 465.35-2.95ZM521.9-12.8L521.9-12.8Q521.9-9 520.25-5.98 518.6-2.95 515.75-1.23 512.9 0.5 509.25 0.5L509.25 0.5Q505.7 0.5 502.82-1.23 499.95-2.95 498.27-5.98 496.6-9 496.6-12.8L496.6-12.8Q496.6-16.65 498.27-19.65 499.95-22.65 502.82-24.4 505.7-26.15 509.25-26.15L509.25-26.15Q512.9-26.15 515.75-24.4 518.6-22.65 520.25-19.65 521.9-16.65 521.9-12.8ZM518.9-12.8L518.9-12.8Q518.9-15.85 517.65-18.23 516.4-20.6 514.22-21.98 512.05-23.35 509.25-23.35L509.25-23.35Q506.55-23.35 504.35-21.98 502.15-20.6 500.87-18.23 499.6-15.85 499.6-12.8L499.6-12.8Q499.6-9.75 500.87-7.4 502.15-5.05 504.35-3.68 506.55-2.3 509.25-2.3L509.25-2.3Q512.05-2.3 514.22-3.68 516.4-5.05 517.65-7.4 518.9-9.75 518.9-12.8ZM552.1-12.8L552.1-12.8Q552.1-9 550.45-5.98 548.8-2.95 545.95-1.23 543.1 0.5 539.45 0.5L539.45 0.5Q535.9 0.5 533.02-1.23 530.15-2.95 528.47-5.98 526.8-9 526.8-12.8L526.8-12.8Q526.8-16.65 528.47-19.65 530.15-22.65 533.02-24.4 535.9-26.15 539.45-26.15L539.45-26.15Q543.1-26.15 545.95-24.4 548.8-22.65 550.45-19.65 552.1-16.65 552.1-12.8ZM549.1-12.8L549.1-12.8Q549.1-15.85 547.85-18.23 546.6-20.6 544.42-21.98 542.25-23.35 539.45-23.35L539.45-23.35Q536.75-23.35 534.55-21.98 532.35-20.6 531.07-18.23 529.8-15.85 529.8-12.8L529.8-12.8Q529.8-9.75 531.07-7.4 532.35-5.05 534.55-3.68 536.75-2.3 539.45-2.3L539.45-2.3Q542.25-2.3 544.42-3.68 546.6-5.05 547.85-7.4 549.1-9.75 549.1-12.8ZM559.99 0L559.99 0Q559.29 0 558.89-0.45 558.49-0.9 558.49-1.5L558.49-1.5 558.49-23.9Q558.49-24.5 558.92-24.95 559.34-25.4 559.99-25.4L559.99-25.4Q560.64-25.4 561.07-24.95 561.49-24.5 561.49-23.9L561.49-23.9 561.49-16.4 560.74-16.25Q560.89-18 561.62-19.73 562.34-21.45 563.59-22.9 564.84-24.35 566.57-25.25 568.29-26.15 570.44-26.15L570.44-26.15Q571.34-26.15 572.19-25.78 573.04-25.4 573.04-24.55L573.04-24.55Q573.04-23.8 572.64-23.4 572.24-23 571.69-23L571.69-23Q571.24-23 570.72-23.25 570.19-23.5 569.34-23.5L569.34-23.5Q567.94-23.5 566.54-22.68 565.14-21.85 563.99-20.45 562.84-19.05 562.17-17.32 561.49-15.6 561.49-13.85L561.49-13.85 561.49-1.5Q561.49-0.9 561.04-0.45 560.59 0 559.99 0ZM601.79 0.5L601.79 0.5Q597.99 0.55 595.19-0.7 592.39-1.95 589.84-4.45L589.84-4.45Q589.59-4.65 589.41-4.95 589.24-5.25 589.24-5.65L589.24-5.65Q589.24-6.25 589.71-6.75 590.19-7.25 590.79-7.25L590.79-7.25Q591.39-7.25 591.89-6.75L591.89-6.75Q593.84-4.65 596.31-3.55 598.79-2.45 601.64-2.45L601.64-2.45Q604.04-2.45 605.91-3.2 607.79-3.95 608.89-5.35 609.99-6.75 609.99-8.6L609.99-8.6Q609.99-10.9 608.74-12.33 607.49-13.75 605.44-14.68 603.39-15.6 600.89-16.35L600.89-16.35Q598.84-16.95 596.99-17.73 595.14-18.5 593.69-19.63 592.24-20.75 591.44-22.4 590.64-24.05 590.64-26.4L590.64-26.4Q590.64-29.05 592.04-31.1 593.44-33.15 596.01-34.33 598.59-35.5 601.99-35.5L601.99-35.5Q604.94-35.5 607.66-34.5 610.39-33.5 611.99-31.55L611.99-31.55Q612.74-30.75 612.74-30.1L612.74-30.1Q612.74-29.6 612.24-29.1 611.74-28.6 611.14-28.6L611.14-28.6Q610.64-28.6 610.29-28.95L610.29-28.95Q609.44-30 608.14-30.83 606.84-31.65 605.26-32.1 603.69-32.55 601.99-32.55L601.99-32.55Q599.64-32.55 597.76-31.83 595.89-31.1 594.81-29.75 593.74-28.4 593.74-26.5L593.74-26.5Q593.74-24.4 594.94-23.05 596.14-21.7 598.09-20.83 600.04-19.95 602.24-19.2L602.24-19.2Q604.39-18.6 606.36-17.82 608.34-17.05 609.86-15.9 611.39-14.75 612.26-13 613.14-11.25 613.14-8.6L613.14-8.6Q613.14-6.05 611.69-4 610.24-1.95 607.71-0.75 605.19 0.45 601.79 0.5ZM617.84-25.45L617.84-25.45 629.49-25.45Q630.09-25.45 630.49-25.03 630.89-24.6 630.89-24L630.89-24Q630.89-23.45 630.49-23.05 630.09-22.65 629.49-22.65L629.49-22.65 617.84-22.65Q617.24-22.65 616.81-23.08 616.39-23.5 616.39-24.05L616.39-24.05Q616.39-24.65 616.81-25.05 617.24-25.45 617.84-25.45ZM622.99-32.5L622.99-32.5Q623.64-32.5 624.06-32.05 624.49-31.6 624.49-31L624.49-31 624.49-5.9Q624.49-4.5 624.86-3.8 625.24-3.1 625.84-2.88 626.44-2.65 627.04-2.65L627.04-2.65Q627.44-2.65 627.76-2.78 628.09-2.9 628.49-2.9L628.49-2.9Q628.94-2.9 629.26-2.55 629.59-2.2 629.59-1.65L629.59-1.65Q629.59-0.95 628.79-0.48 627.99 0 626.89 0L626.89 0Q626.44 0 625.54-0.08 624.64-0.15 623.69-0.63 622.74-1.1 622.11-2.3 621.49-3.5 621.49-5.75L621.49-5.75 621.49-31Q621.49-31.6 621.91-32.05 622.34-32.5 622.99-32.5ZM647.73 0.5L647.73 0.5Q643.88 0.5 640.93-1.15 637.98-2.8 636.33-5.75 634.68-8.7 634.68-12.65L634.68-12.65Q634.68-16.9 636.36-19.9 638.03-22.9 640.71-24.53 643.38-26.15 646.38-26.15L646.38-26.15Q648.58-26.15 650.66-25.38 652.73-24.6 654.36-23.08 655.98-21.55 656.96-19.35 657.93-17.15 658.03-14.25L658.03-14.25Q657.98-13.65 657.53-13.23 657.08-12.8 656.48-12.8L656.48-12.8 636.43-12.8 635.83-15.5 655.53-15.5 654.88-14.9 654.88-15.9Q654.68-18.25 653.38-19.9 652.08-21.55 650.23-22.4 648.38-23.25 646.38-23.25L646.38-23.25Q644.88-23.25 643.31-22.65 641.73-22.05 640.46-20.78 639.18-19.5 638.38-17.53 637.58-15.55 637.58-12.85L637.58-12.85Q637.58-9.9 638.78-7.5 639.98-5.1 642.26-3.7 644.53-2.3 647.68-2.3L647.68-2.3Q649.43-2.3 650.83-2.8 652.23-3.3 653.28-4.13 654.33-4.95 655.03-5.85L655.03-5.85Q655.58-6.3 656.13-6.3L656.13-6.3Q656.63-6.3 657.01-5.9 657.38-5.5 657.38-5L657.38-5Q657.38-4.4 656.88-3.95L656.88-3.95Q655.38-2.15 652.98-0.83 650.58 0.5 647.73 0.5ZM676.58-25.75L676.58-25.75Q679.98-25.75 682.61-24.08 685.23-22.4 686.78-19.48 688.33-16.55 688.33-12.75L688.33-12.75Q688.33-8.95 686.78-6 685.23-3.05 682.58-1.35 679.93 0.35 676.63 0.35L676.63 0.35Q674.88 0.35 673.31-0.18 671.73-0.7 670.43-1.6 669.13-2.5 668.13-3.73 667.13-4.95 666.53-6.4L666.53-6.4 667.43-7.05 667.43 8.5Q667.43 9.1 667.01 9.55 666.58 10 665.93 10L665.93 10Q665.28 10 664.86 9.55 664.43 9.1 664.43 8.5L664.43 8.5 664.43-24.1Q664.43-24.75 664.83-25.2 665.23-25.65 665.93-25.65L665.93-25.65Q666.58-25.65 667.01-25.2 667.43-24.75 667.43-24.1L667.43-24.1 667.43-18.7 666.73-19.1Q667.23-20.65 668.21-21.88 669.18-23.1 670.48-23.98 671.78-24.85 673.33-25.3 674.88-25.75 676.58-25.75ZM676.33-22.95L676.33-22.95Q673.63-22.95 671.58-21.63 669.53-20.3 668.36-18.03 667.18-15.75 667.18-12.75L667.18-12.75Q667.18-9.8 668.36-7.45 669.53-5.1 671.58-3.78 673.63-2.45 676.33-2.45L676.33-2.45Q678.98-2.45 681.01-3.78 683.03-5.1 684.23-7.45 685.43-9.8 685.43-12.75L685.43-12.75Q685.43-15.7 684.23-18 683.03-20.3 681.01-21.63 678.98-22.95 676.33-22.95Z" opacity="1" transform="matrix(1,0,0,1,0,0)" fill="black" class="slogan-text-1" id="SvgjsPath1674"></path></svg></g></svg></g></svg></g></svg></g></svg></g></svg></g></svg></g><defs><mask></mask></defs></svg><rect width="395.52" height="247.2" fill="black" stroke="none" visibility="hidden"></rect></g></mask></svg><rect width="395.52" height="247.2" fill="black" stroke="none" visibility="hidden"></rect></g></mask><linearGradient x1="0" x2="1" y1="0.578" y2="0.595" id="ac6cbab2-6ca2-4786-b1a1-36c429ff451c"><stop stop-color="#6ee2f5" offset="0"></stop><stop stop-color="#6454f0" offset="1"></stop></linearGradient><rect width="395.52" height="247.2" fill="url(#ac6cbab2-6ca2-4786-b1a1-36c429ff451c)" mask="url(#ff1af39c-3571-492a-b983-bcc0f26c1d50)" data-fill-palette-color="secondary"></rect></svg><rect width="395.52" height="247.2" fill="none" stroke="none" visibility="hidden"></rect></g></svg></g></svg>